G04 #@! TF.FileFunction,Soldermask,Top*
%FSLAX46Y46*%
G04 Gerber Fmt 4.6, Leading zero omitted, Abs format (unit mm)*
G04 Created by KiCad (PCBNEW 4.0.7-e2-6376~58~ubuntu16.04.1) date Sat Mar  3 01:45:26 2018*
%MOMM*%
%LPD*%
G01*
G04 APERTURE LIST*
%ADD10C,0.100000*%
%ADD11R,1.250000X1.000000*%
%ADD12R,1.000000X1.250000*%
%ADD13R,0.900000X0.800000*%
%ADD14R,1.200000X1.200000*%
%ADD15R,1.500000X3.000000*%
%ADD16R,0.700000X1.300000*%
%ADD17O,2.500000X3.000000*%
%ADD18R,1.300000X0.700000*%
%ADD19R,1.060000X0.650000*%
%ADD20R,2.000000X2.000000*%
%ADD21R,0.600000X1.500000*%
%ADD22R,1.000000X1.000000*%
G04 APERTURE END LIST*
D10*
D11*
X110000000Y-89000000D03*
X110000000Y-91000000D03*
D12*
X102000000Y-89000000D03*
X100000000Y-89000000D03*
X102000000Y-92000000D03*
X100000000Y-92000000D03*
D11*
X107000000Y-111000000D03*
X107000000Y-109000000D03*
X92000000Y-129000000D03*
X92000000Y-127000000D03*
X109000000Y-111000000D03*
X109000000Y-109000000D03*
X111000000Y-111000000D03*
X111000000Y-109000000D03*
D13*
X115000000Y-90950000D03*
X115000000Y-89050000D03*
X113000000Y-90000000D03*
D14*
X82000000Y-99900000D03*
X82000000Y-102100000D03*
X82000000Y-96000000D03*
X82000000Y-93800000D03*
D15*
X103015000Y-132750000D03*
X104285000Y-137250000D03*
X105555000Y-132750000D03*
X106825000Y-137250000D03*
X108095000Y-132750000D03*
X109365000Y-137250000D03*
X110635000Y-132750000D03*
X111905000Y-137250000D03*
X113175000Y-132750000D03*
X114445000Y-137250000D03*
X115715000Y-132750000D03*
X116985000Y-137250000D03*
X108190000Y-95750000D03*
X109460000Y-100250000D03*
X110730000Y-95750000D03*
X112000000Y-100250000D03*
D16*
X100100000Y-95000000D03*
X102000000Y-95000000D03*
D17*
X127000000Y-136000000D03*
X132000000Y-136000000D03*
D18*
X114000000Y-109100000D03*
X114000000Y-111000000D03*
X85000000Y-100050000D03*
X85000000Y-101950000D03*
X116050000Y-111000000D03*
X116050000Y-109100000D03*
X85000000Y-95950000D03*
X85000000Y-94050000D03*
X99000000Y-104000000D03*
X99000000Y-102100000D03*
X102000000Y-104000000D03*
X102000000Y-102100000D03*
X95000000Y-127100000D03*
X95000000Y-129000000D03*
X89000000Y-127100000D03*
X89000000Y-129000000D03*
X105000000Y-104000000D03*
X105000000Y-102100000D03*
D17*
X83000000Y-136000000D03*
X88000000Y-136000000D03*
X93000000Y-136000000D03*
D19*
X107200000Y-90900000D03*
X107200000Y-89950000D03*
X107200000Y-89000000D03*
X105000000Y-89000000D03*
X105000000Y-90900000D03*
D20*
X127000000Y-123000000D03*
X132000000Y-123000000D03*
X121800000Y-93600000D03*
X137200000Y-93600000D03*
D21*
X107555000Y-123650000D03*
X108825000Y-123650000D03*
X110095000Y-123650000D03*
X111365000Y-123650000D03*
X112635000Y-123650000D03*
X113905000Y-123650000D03*
X115175000Y-123650000D03*
X116445000Y-123650000D03*
X116445000Y-114350000D03*
X115175000Y-114350000D03*
X113905000Y-114350000D03*
X112635000Y-114350000D03*
X111365000Y-114350000D03*
X110095000Y-114350000D03*
X108825000Y-114350000D03*
X107555000Y-114350000D03*
D22*
X89000000Y-124000000D03*
X91000000Y-124000000D03*
X93000000Y-124000000D03*
X95000000Y-124000000D03*
X97000000Y-124000000D03*
X99000000Y-124000000D03*
X101000000Y-124000000D03*
X103000000Y-124000000D03*
X103000000Y-107500000D03*
X101000000Y-107500000D03*
X99000000Y-107500000D03*
X97000000Y-107500000D03*
X95000000Y-107500000D03*
X93000000Y-107500000D03*
X91000000Y-107500000D03*
X89000000Y-107500000D03*
D15*
X89650000Y-95750000D03*
X90920000Y-100250000D03*
X92190000Y-95750000D03*
X93460000Y-100250000D03*
X94730000Y-95750000D03*
X96000000Y-100250000D03*
M02*
