G04 #@! TF.FileFunction,Copper,L1,Top,Signal*
%FSLAX46Y46*%
G04 Gerber Fmt 4.6, Leading zero omitted, Abs format (unit mm)*
G04 Created by KiCad (PCBNEW 4.0.7-e2-6376~58~ubuntu16.04.1) date Sun Mar  4 02:40:10 2018*
%MOMM*%
%LPD*%
G01*
G04 APERTURE LIST*
%ADD10C,0.100000*%
%ADD11R,1.250000X1.000000*%
%ADD12R,1.000000X1.250000*%
%ADD13R,0.800000X0.900000*%
%ADD14R,1.200000X1.200000*%
%ADD15R,1.500000X3.000000*%
%ADD16R,0.700000X1.300000*%
%ADD17O,2.500000X3.000000*%
%ADD18R,1.300000X0.700000*%
%ADD19R,1.060000X0.650000*%
%ADD20R,2.000000X2.000000*%
%ADD21R,0.600000X1.500000*%
%ADD22R,1.000000X1.000000*%
%ADD23C,4.000000*%
%ADD24C,0.900000*%
%ADD25C,0.600000*%
%ADD26C,0.600000*%
%ADD27C,0.400000*%
%ADD28C,3.000000*%
G04 APERTURE END LIST*
D10*
D11*
X110000000Y-89000000D03*
X110000000Y-91000000D03*
D12*
X102000000Y-89000000D03*
X100000000Y-89000000D03*
X102000000Y-92000000D03*
X100000000Y-92000000D03*
D11*
X107000000Y-111000000D03*
X107000000Y-109000000D03*
X92000000Y-129000000D03*
X92000000Y-127000000D03*
X109000000Y-111000000D03*
X109000000Y-109000000D03*
X111000000Y-111000000D03*
X111000000Y-109000000D03*
D13*
X102450000Y-97500000D03*
X100550000Y-97500000D03*
X101500000Y-99500000D03*
D14*
X82000000Y-99900000D03*
X82000000Y-102100000D03*
X82000000Y-96000000D03*
X82000000Y-93800000D03*
D15*
X99110000Y-132750000D03*
X100380000Y-137250000D03*
X101650000Y-132750000D03*
X102920000Y-137250000D03*
X104190000Y-132750000D03*
X105460000Y-137250000D03*
X106730000Y-132750000D03*
X108000000Y-137250000D03*
X109270000Y-132750000D03*
X110540000Y-137250000D03*
X111810000Y-132750000D03*
X113080000Y-137250000D03*
X108190000Y-95750000D03*
X109460000Y-100250000D03*
X110730000Y-95750000D03*
X112000000Y-100250000D03*
D16*
X100100000Y-95000000D03*
X102000000Y-95000000D03*
D17*
X129500000Y-136000000D03*
X134500000Y-136000000D03*
D18*
X114000000Y-109100000D03*
X114000000Y-111000000D03*
X85000000Y-100050000D03*
X85000000Y-101950000D03*
X116050000Y-111000000D03*
X116050000Y-109100000D03*
X85000000Y-95950000D03*
X85000000Y-94050000D03*
X99000000Y-104000000D03*
X99000000Y-102100000D03*
X102000000Y-104000000D03*
X102000000Y-102100000D03*
X95000000Y-127100000D03*
X95000000Y-129000000D03*
X89000000Y-127100000D03*
X89000000Y-129000000D03*
X105000000Y-104000000D03*
X105000000Y-102100000D03*
D17*
X83000000Y-136000000D03*
X88000000Y-136000000D03*
X93000000Y-136000000D03*
D19*
X107200000Y-90900000D03*
X107200000Y-89950000D03*
X107200000Y-89000000D03*
X105000000Y-89000000D03*
X105000000Y-90900000D03*
D20*
X127000000Y-123000000D03*
X132000000Y-123000000D03*
X121800000Y-93600000D03*
X137200000Y-93600000D03*
D21*
X107555000Y-123650000D03*
X108825000Y-123650000D03*
X110095000Y-123650000D03*
X111365000Y-123650000D03*
X112635000Y-123650000D03*
X113905000Y-123650000D03*
X115175000Y-123650000D03*
X116445000Y-123650000D03*
X116445000Y-114350000D03*
X115175000Y-114350000D03*
X113905000Y-114350000D03*
X112635000Y-114350000D03*
X111365000Y-114350000D03*
X110095000Y-114350000D03*
X108825000Y-114350000D03*
X107555000Y-114350000D03*
D22*
X89000000Y-124000000D03*
X91000000Y-124000000D03*
X93000000Y-124000000D03*
X95000000Y-124000000D03*
X97000000Y-124000000D03*
X99000000Y-124000000D03*
X101000000Y-124000000D03*
X103000000Y-124000000D03*
X103000000Y-107500000D03*
X101000000Y-107500000D03*
X99000000Y-107500000D03*
X97000000Y-107500000D03*
X95000000Y-107500000D03*
X93000000Y-107500000D03*
X91000000Y-107500000D03*
X89000000Y-107500000D03*
D15*
X89650000Y-95750000D03*
X90920000Y-100250000D03*
X92190000Y-95750000D03*
X93460000Y-100250000D03*
X94730000Y-95750000D03*
X96000000Y-100250000D03*
D17*
X119500000Y-136000000D03*
X124500000Y-136000000D03*
D23*
X137000000Y-129000000D03*
X83000000Y-129000000D03*
X137000000Y-88000000D03*
X83000000Y-88000000D03*
D24*
X91571759Y-129928241D03*
X88500000Y-98000000D03*
X106090000Y-95000000D03*
X100000000Y-90500000D03*
X109000000Y-92000000D03*
X105000000Y-101000000D03*
X107500000Y-107500000D03*
X106000000Y-124000000D03*
X117345000Y-125000000D03*
D25*
X112066460Y-97989246D03*
D24*
X99150000Y-95000000D03*
X105150000Y-98000000D03*
X108525002Y-104500000D03*
X121500000Y-101000000D03*
X134020000Y-96000000D03*
D25*
X114000000Y-130000000D03*
X117500000Y-121000000D03*
X101331276Y-117449986D03*
X106500000Y-117500023D03*
X114000000Y-117000000D03*
X114000000Y-107500000D03*
X101331276Y-116500000D03*
X106500000Y-116700010D03*
X97758808Y-105198059D03*
X93460000Y-104960000D03*
X95000000Y-122000000D03*
X88000000Y-103000000D03*
X115000000Y-118000000D03*
X85000000Y-97000000D03*
X112135000Y-116000000D03*
X94000000Y-105600000D03*
D24*
X130500000Y-105000000D03*
D26*
X113000000Y-89000000D02*
X119500000Y-89000000D01*
X119500000Y-89000000D02*
X131000000Y-89000000D01*
X119500000Y-101500000D02*
X119500000Y-89000000D01*
X113080000Y-137250000D02*
X113080000Y-133420000D01*
X113080000Y-133420000D02*
X116785547Y-129714453D01*
X116785547Y-129714453D02*
X116840662Y-129714453D01*
X116840662Y-129714453D02*
X119500000Y-127055115D01*
X119500000Y-127055115D02*
X119500000Y-101500000D01*
X131000000Y-89000000D02*
X135600000Y-93600000D01*
X135600000Y-93600000D02*
X137200000Y-93600000D01*
X113000000Y-89000000D02*
X110000000Y-89000000D01*
X102920000Y-137250000D02*
X100380000Y-137250000D01*
X105460000Y-137250000D02*
X102920000Y-137250000D01*
X108000000Y-137250000D02*
X105460000Y-137250000D01*
X110540000Y-137250000D02*
X108000000Y-137250000D01*
X113080000Y-137250000D02*
X110540000Y-137250000D01*
X107200000Y-89000000D02*
X106394998Y-89000000D01*
X106394998Y-89000000D02*
X106169999Y-89224999D01*
X106169999Y-89224999D02*
X106169999Y-90675001D01*
X106169999Y-90675001D02*
X106394998Y-90900000D01*
X106394998Y-90900000D02*
X107200000Y-90900000D01*
X110000000Y-89000000D02*
X107200000Y-89000000D01*
X92021758Y-129478242D02*
X91571759Y-129928241D01*
X92000000Y-129000000D02*
X92021758Y-129021758D01*
X92021758Y-129021758D02*
X92021758Y-129478242D01*
X89500000Y-98000000D02*
X88500000Y-98000000D01*
X89650000Y-95750000D02*
X89650000Y-97850000D01*
X89650000Y-97850000D02*
X89500000Y-98000000D01*
X108190000Y-95750000D02*
X106840000Y-95750000D01*
X106840000Y-95750000D02*
X106090000Y-95000000D01*
X100000000Y-90500000D02*
X100000000Y-89000000D01*
X100000000Y-92000000D02*
X100000000Y-90500000D01*
X109000000Y-90620000D02*
X109000000Y-91000000D01*
X109000000Y-91000000D02*
X109000000Y-92000000D01*
X110000000Y-91000000D02*
X109000000Y-91000000D01*
X107200000Y-89950000D02*
X108330000Y-89950000D01*
X108330000Y-89950000D02*
X109000000Y-90620000D01*
X105000000Y-102100000D02*
X105000000Y-101000000D01*
X107500000Y-108500000D02*
X107500000Y-107500000D01*
X107000000Y-109000000D02*
X107500000Y-108500000D01*
X109000000Y-109000000D02*
X111000000Y-109000000D01*
X107000000Y-109000000D02*
X109000000Y-109000000D01*
X103000000Y-107500000D02*
X105500000Y-107500000D01*
X105500000Y-107500000D02*
X107000000Y-109000000D01*
X106350000Y-123650000D02*
X106000000Y-124000000D01*
X107555000Y-123650000D02*
X106350000Y-123650000D01*
X108825000Y-123650000D02*
X107555000Y-123650000D01*
X110095000Y-123650000D02*
X108825000Y-123650000D01*
X116445000Y-123650000D02*
X116445000Y-124100000D01*
X116445000Y-124100000D02*
X117345000Y-125000000D01*
X105000000Y-89000000D02*
X102000000Y-89000000D01*
X105000000Y-90900000D02*
X104000000Y-90900000D01*
X104000000Y-96950000D02*
X104000000Y-90900000D01*
X104000000Y-90900000D02*
X103100000Y-90900000D01*
X102450000Y-97500000D02*
X103450000Y-97500000D01*
X103450000Y-97500000D02*
X104000000Y-96950000D01*
X103100000Y-90900000D02*
X102000000Y-92000000D01*
X112058076Y-97989246D02*
X112058076Y-100191924D01*
X112058076Y-100191924D02*
X112000000Y-100250000D01*
X102000000Y-102100000D02*
X102000000Y-101150000D01*
X102000000Y-101150000D02*
X105150000Y-98000000D01*
X105150000Y-98000000D02*
X105500000Y-98000000D01*
X126500000Y-96000000D02*
X121500000Y-101000000D01*
X134020000Y-96000000D02*
X126500000Y-96000000D01*
X107000000Y-102974998D02*
X108525002Y-104500000D01*
X108525002Y-104500000D02*
X112500000Y-108474998D01*
X106875000Y-111000000D02*
X107000000Y-111000000D01*
X103000000Y-124000000D02*
X103000000Y-114875000D01*
X103000000Y-114875000D02*
X106875000Y-111000000D01*
X89000000Y-129000000D02*
X89000000Y-129615718D01*
X89000000Y-129615718D02*
X90371740Y-130987458D01*
X90371740Y-130987458D02*
X92712542Y-130987458D01*
X92712542Y-130987458D02*
X94700000Y-129000000D01*
X87000000Y-97000000D02*
X87000000Y-93000000D01*
X87000000Y-93000000D02*
X88000000Y-92000000D01*
X86000000Y-98000000D02*
X87000000Y-97000000D01*
X82000000Y-98000000D02*
X82000000Y-99900000D01*
X82000000Y-98000000D02*
X86000000Y-98000000D01*
X82000000Y-96000000D02*
X82000000Y-98000000D01*
X88000000Y-92000000D02*
X96150000Y-92000000D01*
X99150000Y-95000000D02*
X100100000Y-95000000D01*
X96150000Y-92000000D02*
X99150000Y-95000000D01*
X107555000Y-114350000D02*
X107555000Y-111555000D01*
X107555000Y-111555000D02*
X107000000Y-111000000D01*
X94700000Y-129000000D02*
X95000000Y-129000000D01*
X93000000Y-136000000D02*
X93000000Y-130700000D01*
X93000000Y-130700000D02*
X94700000Y-129000000D01*
X103000000Y-124000000D02*
X103000000Y-125100000D01*
X103000000Y-125100000D02*
X99100000Y-129000000D01*
X99100000Y-129000000D02*
X96250000Y-129000000D01*
X96250000Y-129000000D02*
X95000000Y-129000000D01*
X99000000Y-102100000D02*
X102000000Y-102100000D01*
X105500000Y-98000000D02*
X107000000Y-99500000D01*
X107000000Y-99500000D02*
X107000000Y-102974998D01*
X112500000Y-108474998D02*
X112500000Y-111000000D01*
X112500000Y-111000000D02*
X111000000Y-111000000D01*
X114000000Y-111000000D02*
X112500000Y-111000000D01*
X116050000Y-111000000D02*
X114000000Y-111000000D01*
X109000000Y-111000000D02*
X111000000Y-111000000D01*
X107000000Y-111000000D02*
X109000000Y-111000000D01*
D27*
X94730000Y-95750000D02*
X94730000Y-106049998D01*
X94730000Y-106049998D02*
X93900001Y-106879997D01*
X93900001Y-106879997D02*
X93900001Y-118199999D01*
X93900001Y-118199999D02*
X89000000Y-123100000D01*
X89000000Y-123100000D02*
X89000000Y-124000000D01*
X89000000Y-127100000D02*
X91900000Y-127100000D01*
X91900000Y-127100000D02*
X92000000Y-127000000D01*
X89000000Y-127100000D02*
X89000000Y-124000000D01*
X82000000Y-93800000D02*
X84750000Y-93800000D01*
X84750000Y-93800000D02*
X85000000Y-94050000D01*
X111365000Y-124524712D02*
X110419761Y-125469951D01*
X111365000Y-123650000D02*
X111365000Y-124524712D01*
X110419761Y-125469951D02*
X105640049Y-125469951D01*
X105640049Y-125469951D02*
X99110000Y-132000000D01*
X99110000Y-132000000D02*
X99110000Y-132750000D01*
X112635000Y-123650000D02*
X112635000Y-124321432D01*
X112635000Y-124321432D02*
X110771888Y-126184544D01*
X107465456Y-126184544D02*
X101650000Y-132000000D01*
X110771888Y-126184544D02*
X107465456Y-126184544D01*
X101650000Y-132000000D02*
X101650000Y-132750000D01*
X113905000Y-123650000D02*
X113905000Y-124100000D01*
X113905000Y-124100000D02*
X110942318Y-127062682D01*
X104190000Y-132000000D02*
X104190000Y-132750000D01*
X110942318Y-127062682D02*
X109127318Y-127062682D01*
X109127318Y-127062682D02*
X104190000Y-132000000D01*
X115175000Y-123650000D02*
X115175000Y-124100000D01*
X115175000Y-124100000D02*
X111285491Y-127989509D01*
X111285491Y-127989509D02*
X109931783Y-127989509D01*
X109931783Y-127989509D02*
X106730000Y-131191292D01*
X106730000Y-131191292D02*
X106730000Y-132750000D01*
X118517885Y-125482115D02*
X117689525Y-126310475D01*
X117689525Y-126310475D02*
X114959525Y-126310475D01*
X118517885Y-116872885D02*
X118517885Y-125482115D01*
X116445000Y-114350000D02*
X116445000Y-114800000D01*
X116445000Y-114800000D02*
X118517885Y-116872885D01*
X114959525Y-126310475D02*
X109270000Y-132000000D01*
X109270000Y-132000000D02*
X109270000Y-132750000D01*
X114000000Y-130000000D02*
X113999999Y-130000000D01*
X113999999Y-130000000D02*
X111810000Y-132189999D01*
X111810000Y-132189999D02*
X111810000Y-132750000D01*
X117500000Y-117125000D02*
X117500000Y-121000000D01*
X115175000Y-114350000D02*
X115175000Y-114800000D01*
X115175000Y-114800000D02*
X117500000Y-117125000D01*
X110087160Y-117000000D02*
X109587137Y-117500023D01*
X109587137Y-117500023D02*
X106924264Y-117500023D01*
X106924264Y-117500023D02*
X106500000Y-117500023D01*
X97000000Y-124000000D02*
X97000000Y-121781262D01*
X101031277Y-117749985D02*
X101331276Y-117449986D01*
X97000000Y-121781262D02*
X101031277Y-117749985D01*
X111500000Y-117000000D02*
X110095000Y-117000000D01*
X110095000Y-117000000D02*
X110095000Y-114350000D01*
X114000000Y-117000000D02*
X111500000Y-117000000D01*
X114000000Y-106690000D02*
X114000000Y-107500000D01*
X114000000Y-108000000D02*
X114000000Y-107500000D01*
X114000000Y-109100000D02*
X114000000Y-108000000D01*
X109460000Y-100250000D02*
X109460000Y-102150000D01*
X109460000Y-102150000D02*
X114000000Y-106690000D01*
X116050000Y-109100000D02*
X116917390Y-109100000D01*
X116917390Y-109100000D02*
X117500000Y-109682610D01*
X110225000Y-112500000D02*
X108825000Y-113900000D01*
X117500000Y-109682610D02*
X117500000Y-111853689D01*
X116853689Y-112500000D02*
X110225000Y-112500000D01*
X117500000Y-111853689D02*
X116853689Y-112500000D01*
X108825000Y-113900000D02*
X108825000Y-114350000D01*
X102031278Y-120068722D02*
X102031278Y-116775738D01*
X99000000Y-124000000D02*
X99000000Y-123100000D01*
X101755540Y-116500000D02*
X101331276Y-116500000D01*
X102031278Y-116775738D02*
X101755540Y-116500000D01*
X99000000Y-123100000D02*
X102031278Y-120068722D01*
X106924264Y-116700010D02*
X106500000Y-116700010D01*
X108825000Y-114800000D02*
X106924990Y-116700010D01*
X106924990Y-116700010D02*
X106924264Y-116700010D01*
X108825000Y-114350000D02*
X108825000Y-114800000D01*
X110730000Y-95750000D02*
X110730000Y-101950002D01*
X110730000Y-101950002D02*
X116050000Y-107270002D01*
X116050000Y-107270002D02*
X116050000Y-108350000D01*
X116050000Y-108350000D02*
X116050000Y-109100000D01*
D28*
X129500000Y-131500000D02*
X127000000Y-129000000D01*
X127000000Y-129000000D02*
X127000000Y-123000000D01*
X129500000Y-136000000D02*
X129500000Y-131500000D01*
D27*
X97758808Y-104941192D02*
X97758808Y-105198059D01*
X99000000Y-104000000D02*
X98700000Y-104000000D01*
X97458809Y-105498058D02*
X97758808Y-105198059D01*
X97000000Y-105956867D02*
X97458809Y-105498058D01*
X98700000Y-104000000D02*
X97758808Y-104941192D01*
X97000000Y-107500000D02*
X97000000Y-105956867D01*
X93460000Y-100250000D02*
X93460000Y-104960000D01*
X99000000Y-107500000D02*
X99000000Y-106600000D01*
X99000000Y-106600000D02*
X101600000Y-104000000D01*
X101600000Y-104000000D02*
X102000000Y-104000000D01*
X95000000Y-127100000D02*
X95000000Y-126000000D01*
X95000000Y-126000000D02*
X93000000Y-124000000D01*
X101000000Y-107500000D02*
X101000000Y-106600000D01*
X101000000Y-106600000D02*
X103600000Y-104000000D01*
X103600000Y-104000000D02*
X103950000Y-104000000D01*
X103950000Y-104000000D02*
X105000000Y-104000000D01*
X95000000Y-122000000D02*
X95000000Y-107500000D01*
X91000000Y-107500000D02*
X91000000Y-106600000D01*
X91000000Y-106600000D02*
X92190000Y-105410000D01*
X92190000Y-105410000D02*
X92190000Y-97650000D01*
X92190000Y-97650000D02*
X92190000Y-95750000D01*
X89000000Y-107500000D02*
X89000000Y-101020000D01*
X89000000Y-101020000D02*
X89770000Y-100250000D01*
X89770000Y-100250000D02*
X90920000Y-100250000D01*
X82000000Y-102100000D02*
X84850000Y-102100000D01*
X84850000Y-102100000D02*
X85000000Y-101950000D01*
X88000000Y-103000000D02*
X85050000Y-100050000D01*
X85050000Y-100050000D02*
X85000000Y-100050000D01*
X115000000Y-115895000D02*
X115000000Y-118000000D01*
X113905000Y-114350000D02*
X113905000Y-114800000D01*
X113905000Y-114800000D02*
X115000000Y-115895000D01*
X85000000Y-97000000D02*
X85000000Y-95950000D01*
X112635000Y-114350000D02*
X112635000Y-115500000D01*
X112635000Y-115500000D02*
X112135000Y-116000000D01*
X93000000Y-107500000D02*
X93000000Y-106600000D01*
X93000000Y-106600000D02*
X94000000Y-105600000D01*
D26*
X119500000Y-136000000D02*
X119500000Y-133878540D01*
X119500000Y-133878540D02*
X122783467Y-130595073D01*
X122783467Y-130595073D02*
X122783467Y-112716533D01*
X122783467Y-112716533D02*
X130500000Y-105000000D01*
X100550000Y-97500000D02*
X98000000Y-97500000D01*
X98000000Y-97500000D02*
X96000000Y-99500000D01*
X96000000Y-99500000D02*
X96000000Y-100250000D01*
X101500000Y-99500000D02*
X101500000Y-95500000D01*
X101500000Y-95500000D02*
X102000000Y-95000000D01*
M02*
