G04 #@! TF.FileFunction,Copper,L2,Bot,Signal*
%FSLAX46Y46*%
G04 Gerber Fmt 4.6, Leading zero omitted, Abs format (unit mm)*
G04 Created by KiCad (PCBNEW 4.0.7-e2-6376~58~ubuntu16.04.1) date Sun Mar  4 02:40:10 2018*
%MOMM*%
%LPD*%
G01*
G04 APERTURE LIST*
%ADD10C,0.100000*%
%ADD11O,2.500000X3.000000*%
%ADD12R,2.000000X2.000000*%
%ADD13R,0.700000X1.300000*%
%ADD14R,1.300000X0.700000*%
%ADD15R,0.640000X2.000000*%
%ADD16R,2.500000X1.000000*%
%ADD17R,1.250000X1.000000*%
%ADD18R,0.900000X1.700000*%
%ADD19C,4.000000*%
%ADD20C,0.900000*%
%ADD21C,0.600000*%
%ADD22C,0.600000*%
%ADD23C,0.400000*%
%ADD24C,3.000000*%
%ADD25C,0.254000*%
G04 APERTURE END LIST*
D10*
D11*
X129500000Y-136000000D03*
X134500000Y-136000000D03*
X83000000Y-136000000D03*
X88000000Y-136000000D03*
X93000000Y-136000000D03*
D12*
X127000000Y-123000000D03*
X132000000Y-123000000D03*
X121800000Y-93600000D03*
X137200000Y-93600000D03*
D13*
X129950000Y-98000000D03*
X128050000Y-98000000D03*
D14*
X125500000Y-99000000D03*
X125500000Y-97100000D03*
D11*
X119500000Y-136000000D03*
X124500000Y-136000000D03*
D15*
X134770000Y-104650000D03*
X132230000Y-104650000D03*
X132230000Y-98350000D03*
X134770000Y-98350000D03*
D16*
X132000000Y-112000000D03*
X132000000Y-115000000D03*
D17*
X122000000Y-97000000D03*
X122000000Y-99000000D03*
D18*
X134950000Y-109000000D03*
X132050000Y-109000000D03*
D19*
X137000000Y-129000000D03*
X83000000Y-129000000D03*
X137000000Y-88000000D03*
X83000000Y-88000000D03*
D20*
X91571759Y-129928241D03*
X88500000Y-98000000D03*
X106090000Y-95000000D03*
X100000000Y-90500000D03*
X109000000Y-92000000D03*
X105000000Y-101000000D03*
X107500000Y-107500000D03*
X106000000Y-124000000D03*
X117345000Y-125000000D03*
D21*
X112066460Y-97989246D03*
D20*
X99150000Y-95000000D03*
X105150000Y-98000000D03*
X108525002Y-104500000D03*
X121500000Y-101000000D03*
X134020000Y-96000000D03*
D21*
X114000000Y-130000000D03*
X117500000Y-121000000D03*
X101331276Y-117449986D03*
X106500000Y-117500023D03*
X114000000Y-117000000D03*
X114000000Y-107500000D03*
X101331276Y-116500000D03*
X106500000Y-116700010D03*
X97758808Y-105198059D03*
X93460000Y-104960000D03*
X95000000Y-122000000D03*
X88000000Y-103000000D03*
X115000000Y-118000000D03*
X85000000Y-97000000D03*
X112135000Y-116000000D03*
X94000000Y-105600000D03*
D20*
X130500000Y-105000000D03*
D22*
X112055706Y-98000000D02*
X112066460Y-97989246D01*
X105150000Y-98000000D02*
X112055706Y-98000000D01*
X102000000Y-98000000D02*
X99150000Y-95150000D01*
X99150000Y-95150000D02*
X99150000Y-95000000D01*
X105150000Y-98000000D02*
X102000000Y-98000000D01*
X118000000Y-104500000D02*
X108525002Y-104500000D01*
X121500000Y-101000000D02*
X118000000Y-104500000D01*
X134770000Y-98350000D02*
X134770000Y-96750000D01*
X134770000Y-96750000D02*
X134020000Y-96000000D01*
D23*
X117500000Y-121000000D02*
X117500000Y-122000000D01*
X117500000Y-122000000D02*
X118500000Y-123000000D01*
X118500000Y-123000000D02*
X118500000Y-125500000D01*
X118500000Y-125500000D02*
X114571872Y-129428128D01*
X114571872Y-129428128D02*
X114000000Y-130000000D01*
X101381313Y-117500023D02*
X101331276Y-117449986D01*
X106500000Y-117500023D02*
X101381313Y-117500023D01*
X114000000Y-107500000D02*
X114000000Y-117000000D01*
X101531286Y-116700010D02*
X101331276Y-116500000D01*
X106500000Y-116700010D02*
X101531286Y-116700010D01*
D24*
X134500000Y-133000000D02*
X132000000Y-130500000D01*
X132000000Y-130500000D02*
X132000000Y-123000000D01*
X134500000Y-136000000D02*
X134500000Y-133000000D01*
D23*
X97458809Y-104898060D02*
X97758808Y-105198059D01*
X93759999Y-104660001D02*
X97220750Y-104660001D01*
X93460000Y-104960000D02*
X93759999Y-104660001D01*
X97220750Y-104660001D02*
X97458809Y-104898060D01*
X88000000Y-129000000D02*
X95000000Y-122000000D01*
X88000000Y-136000000D02*
X88000000Y-129000000D01*
X100631266Y-115631266D02*
X100631266Y-118324040D01*
X100631266Y-118324040D02*
X101307226Y-119000000D01*
X115000000Y-118000000D02*
X114000000Y-119000000D01*
X114000000Y-119000000D02*
X101307226Y-119000000D01*
X101307226Y-119000000D02*
X101264131Y-118956905D01*
X100631266Y-115631266D02*
X88000000Y-103000000D01*
X85000000Y-98500000D02*
X85000000Y-97000000D01*
X112135000Y-116000000D02*
X102500000Y-116000000D01*
X102500000Y-116000000D02*
X85000000Y-98500000D01*
D22*
X132000000Y-112000000D02*
X132000000Y-109050000D01*
X132000000Y-109050000D02*
X132050000Y-109000000D01*
X124500000Y-136000000D02*
X122777110Y-134277110D01*
X122777110Y-134277110D02*
X122777110Y-118222890D01*
X128978331Y-115000000D02*
X132000000Y-115000000D01*
X122777110Y-118222890D02*
X126000000Y-115000000D01*
X126000000Y-115000000D02*
X128978331Y-115000000D01*
D23*
X125500000Y-99000000D02*
X127050000Y-99000000D01*
X127050000Y-99000000D02*
X128050000Y-98000000D01*
X122000000Y-99000000D02*
X125500000Y-99000000D01*
X94000000Y-105600000D02*
X94000000Y-105618701D01*
X94000000Y-105618701D02*
X94881299Y-106500000D01*
X98329173Y-106500000D02*
X101706285Y-103122888D01*
X94881299Y-106500000D02*
X98329173Y-106500000D01*
X116877112Y-103097888D02*
X120975000Y-99000000D01*
X101706285Y-103122888D02*
X116877112Y-103122888D01*
X116877112Y-103122888D02*
X116877112Y-103097888D01*
X120975000Y-99000000D02*
X122000000Y-99000000D01*
X128000000Y-98050000D02*
X128050000Y-98000000D01*
D22*
X134950000Y-109000000D02*
X134950000Y-104830000D01*
X134950000Y-104830000D02*
X134770000Y-104650000D01*
D23*
X129950000Y-98000000D02*
X131880000Y-98000000D01*
X131880000Y-98000000D02*
X132230000Y-98350000D01*
D22*
X130500000Y-105000000D02*
X131880000Y-105000000D01*
X131880000Y-105000000D02*
X132230000Y-104650000D01*
D25*
G36*
X135509342Y-85764853D02*
X134767458Y-86505443D01*
X134365458Y-87473567D01*
X134364543Y-88521834D01*
X134764853Y-89490658D01*
X135505443Y-90232542D01*
X136473567Y-90634542D01*
X137521834Y-90635457D01*
X138490658Y-90235147D01*
X139232542Y-89494557D01*
X139315000Y-89295976D01*
X139315000Y-100873000D01*
X127500000Y-100873000D01*
X127452211Y-100882334D01*
X127410197Y-100910197D01*
X119910197Y-108410197D01*
X119883006Y-108450590D01*
X119873000Y-108500000D01*
X119873000Y-127447394D01*
X116910197Y-130410197D01*
X116883006Y-130450590D01*
X116873000Y-130500000D01*
X116873000Y-139315000D01*
X80685000Y-139315000D01*
X80685000Y-136424040D01*
X81114885Y-136424040D01*
X81324983Y-137132194D01*
X81790087Y-137706042D01*
X82439389Y-138058221D01*
X82580355Y-138087695D01*
X82873000Y-137971572D01*
X82873000Y-136127000D01*
X83127000Y-136127000D01*
X83127000Y-137971572D01*
X83419645Y-138087695D01*
X83560611Y-138058221D01*
X84209913Y-137706042D01*
X84675017Y-137132194D01*
X84885115Y-136424040D01*
X84730382Y-136127000D01*
X83127000Y-136127000D01*
X82873000Y-136127000D01*
X81269618Y-136127000D01*
X81114885Y-136424040D01*
X80685000Y-136424040D01*
X80685000Y-135575960D01*
X81114885Y-135575960D01*
X81269618Y-135873000D01*
X82873000Y-135873000D01*
X82873000Y-134028428D01*
X83127000Y-134028428D01*
X83127000Y-135873000D01*
X84730382Y-135873000D01*
X84885115Y-135575960D01*
X84675017Y-134867806D01*
X84209913Y-134293958D01*
X83560611Y-133941779D01*
X83419645Y-133912305D01*
X83127000Y-134028428D01*
X82873000Y-134028428D01*
X82580355Y-133912305D01*
X82439389Y-133941779D01*
X81790087Y-134293958D01*
X81324983Y-134867806D01*
X81114885Y-135575960D01*
X80685000Y-135575960D01*
X80685000Y-132127000D01*
X87165000Y-132127000D01*
X87165000Y-134042593D01*
X86667104Y-134375277D01*
X86258487Y-134986815D01*
X86115000Y-135708173D01*
X86115000Y-136291827D01*
X86258487Y-137013185D01*
X86667104Y-137624723D01*
X87278642Y-138033340D01*
X88000000Y-138176827D01*
X88721358Y-138033340D01*
X89332896Y-137624723D01*
X89741513Y-137013185D01*
X89885000Y-136291827D01*
X89885000Y-135708173D01*
X91115000Y-135708173D01*
X91115000Y-136291827D01*
X91258487Y-137013185D01*
X91667104Y-137624723D01*
X92278642Y-138033340D01*
X93000000Y-138176827D01*
X93721358Y-138033340D01*
X94332896Y-137624723D01*
X94741513Y-137013185D01*
X94885000Y-136291827D01*
X94885000Y-135708173D01*
X94741513Y-134986815D01*
X94332896Y-134375277D01*
X93721358Y-133966660D01*
X93000000Y-133823173D01*
X92278642Y-133966660D01*
X91667104Y-134375277D01*
X91258487Y-134986815D01*
X91115000Y-135708173D01*
X89885000Y-135708173D01*
X89741513Y-134986815D01*
X89332896Y-134375277D01*
X88835000Y-134042593D01*
X88835000Y-130185167D01*
X113064838Y-130185167D01*
X113206883Y-130528943D01*
X113469673Y-130792192D01*
X113813201Y-130934838D01*
X114185167Y-130935162D01*
X114528943Y-130793117D01*
X114792192Y-130530327D01*
X114892778Y-130288090D01*
X119090434Y-126090434D01*
X119271439Y-125819541D01*
X119335000Y-125500000D01*
X119335000Y-123000000D01*
X119322103Y-122935162D01*
X119271440Y-122680460D01*
X119090434Y-122409566D01*
X118335000Y-121654132D01*
X118335000Y-121427234D01*
X118434838Y-121186799D01*
X118435162Y-120814833D01*
X118293117Y-120471057D01*
X118030327Y-120207808D01*
X117686799Y-120065162D01*
X117314833Y-120064838D01*
X116971057Y-120206883D01*
X116707808Y-120469673D01*
X116565162Y-120813201D01*
X116564838Y-121185167D01*
X116665000Y-121427578D01*
X116665000Y-122000000D01*
X116728561Y-122319541D01*
X116788714Y-122409566D01*
X116909566Y-122590434D01*
X117665000Y-123345868D01*
X117665000Y-125154132D01*
X113711667Y-129107465D01*
X113471057Y-129206883D01*
X113207808Y-129469673D01*
X113065162Y-129813201D01*
X113064838Y-130185167D01*
X88835000Y-130185167D01*
X88835000Y-129345868D01*
X95288333Y-122892535D01*
X95528943Y-122793117D01*
X95792192Y-122530327D01*
X95934838Y-122186799D01*
X95935162Y-121814833D01*
X95793117Y-121471057D01*
X95530327Y-121207808D01*
X95186799Y-121065162D01*
X94814833Y-121064838D01*
X94471057Y-121206883D01*
X94207808Y-121469673D01*
X94107222Y-121711910D01*
X88127000Y-127692132D01*
X88127000Y-104307868D01*
X99796266Y-115977134D01*
X99796266Y-118324040D01*
X99859827Y-118643581D01*
X99884469Y-118680460D01*
X100040832Y-118914474D01*
X100716792Y-119590434D01*
X100987686Y-119771440D01*
X101307226Y-119835000D01*
X114000000Y-119835000D01*
X114319541Y-119771439D01*
X114590434Y-119590434D01*
X115288333Y-118892535D01*
X115528943Y-118793117D01*
X115792192Y-118530327D01*
X115934838Y-118186799D01*
X115935162Y-117814833D01*
X115793117Y-117471057D01*
X115530327Y-117207808D01*
X115186799Y-117065162D01*
X114934944Y-117064943D01*
X114935162Y-116814833D01*
X114835000Y-116572422D01*
X114835000Y-107927234D01*
X114934838Y-107686799D01*
X114935162Y-107314833D01*
X114793117Y-106971057D01*
X114530327Y-106707808D01*
X114186799Y-106565162D01*
X113814833Y-106564838D01*
X113471057Y-106706883D01*
X113207808Y-106969673D01*
X113065162Y-107313201D01*
X113064838Y-107685167D01*
X113165000Y-107927578D01*
X113165000Y-116572766D01*
X113065162Y-116813201D01*
X113064838Y-117185167D01*
X113206883Y-117528943D01*
X113469673Y-117792192D01*
X113813201Y-117934838D01*
X113884232Y-117934900D01*
X113654132Y-118165000D01*
X107157307Y-118165000D01*
X107292192Y-118030350D01*
X107434838Y-117686822D01*
X107435162Y-117314856D01*
X107346349Y-117099912D01*
X107434838Y-116886809D01*
X107434883Y-116835000D01*
X111707766Y-116835000D01*
X111948201Y-116934838D01*
X112320167Y-116935162D01*
X112663943Y-116793117D01*
X112927192Y-116530327D01*
X113069838Y-116186799D01*
X113070162Y-115814833D01*
X112928117Y-115471057D01*
X112665327Y-115207808D01*
X112321799Y-115065162D01*
X111949833Y-115064838D01*
X111707422Y-115165000D01*
X102845868Y-115165000D01*
X95015868Y-107335000D01*
X98329173Y-107335000D01*
X98648714Y-107271439D01*
X98919607Y-107090434D01*
X102052153Y-103957888D01*
X107575286Y-103957888D01*
X107440191Y-104283233D01*
X107439814Y-104714873D01*
X107604648Y-105113800D01*
X107909597Y-105419282D01*
X108308235Y-105584811D01*
X108739875Y-105585188D01*
X109103356Y-105435000D01*
X118000000Y-105435000D01*
X118357809Y-105363827D01*
X118661145Y-105161145D01*
X121752754Y-102069536D01*
X122113800Y-101920354D01*
X122419282Y-101615405D01*
X122584811Y-101216767D01*
X122585188Y-100785127D01*
X122420354Y-100386200D01*
X122182011Y-100147440D01*
X122625000Y-100147440D01*
X122860317Y-100103162D01*
X123076441Y-99964090D01*
X123164644Y-99835000D01*
X124435025Y-99835000D01*
X124598110Y-99946431D01*
X124850000Y-99997440D01*
X126150000Y-99997440D01*
X126385317Y-99953162D01*
X126568946Y-99835000D01*
X127050000Y-99835000D01*
X127369541Y-99771439D01*
X127640434Y-99590434D01*
X127933428Y-99297440D01*
X128400000Y-99297440D01*
X128635317Y-99253162D01*
X128851441Y-99114090D01*
X128996431Y-98901890D01*
X128999081Y-98888803D01*
X129135910Y-99101441D01*
X129348110Y-99246431D01*
X129600000Y-99297440D01*
X130300000Y-99297440D01*
X130535317Y-99253162D01*
X130751441Y-99114090D01*
X130896431Y-98901890D01*
X130909977Y-98835000D01*
X131262560Y-98835000D01*
X131262560Y-99350000D01*
X131306838Y-99585317D01*
X131445910Y-99801441D01*
X131658110Y-99946431D01*
X131910000Y-99997440D01*
X132550000Y-99997440D01*
X132785317Y-99953162D01*
X133001441Y-99814090D01*
X133146431Y-99601890D01*
X133197440Y-99350000D01*
X133197440Y-97350000D01*
X133153162Y-97114683D01*
X133014090Y-96898559D01*
X132801890Y-96753569D01*
X132550000Y-96702560D01*
X131910000Y-96702560D01*
X131674683Y-96746838D01*
X131458559Y-96885910D01*
X131313569Y-97098110D01*
X131300023Y-97165000D01*
X130912630Y-97165000D01*
X130903162Y-97114683D01*
X130764090Y-96898559D01*
X130551890Y-96753569D01*
X130300000Y-96702560D01*
X129600000Y-96702560D01*
X129364683Y-96746838D01*
X129148559Y-96885910D01*
X129003569Y-97098110D01*
X129000919Y-97111197D01*
X128864090Y-96898559D01*
X128651890Y-96753569D01*
X128400000Y-96702560D01*
X127700000Y-96702560D01*
X127464683Y-96746838D01*
X127248559Y-96885910D01*
X127103569Y-97098110D01*
X127052560Y-97350000D01*
X127052560Y-97816572D01*
X126704132Y-98165000D01*
X126564975Y-98165000D01*
X126401890Y-98053569D01*
X126368510Y-98046809D01*
X126509699Y-97988327D01*
X126688327Y-97809698D01*
X126785000Y-97576309D01*
X126785000Y-97385750D01*
X126626250Y-97227000D01*
X125627000Y-97227000D01*
X125627000Y-97247000D01*
X125373000Y-97247000D01*
X125373000Y-97227000D01*
X124373750Y-97227000D01*
X124215000Y-97385750D01*
X124215000Y-97576309D01*
X124311673Y-97809698D01*
X124490301Y-97988327D01*
X124626287Y-98044654D01*
X124614683Y-98046838D01*
X124431054Y-98165000D01*
X123164018Y-98165000D01*
X123089090Y-98048559D01*
X123020994Y-98002031D01*
X123163327Y-97859698D01*
X123260000Y-97626309D01*
X123260000Y-97285750D01*
X123101250Y-97127000D01*
X122127000Y-97127000D01*
X122127000Y-97147000D01*
X121873000Y-97147000D01*
X121873000Y-97127000D01*
X120898750Y-97127000D01*
X120740000Y-97285750D01*
X120740000Y-97626309D01*
X120836673Y-97859698D01*
X120977910Y-98000936D01*
X120923559Y-98035910D01*
X120813391Y-98197146D01*
X120655460Y-98228560D01*
X120384566Y-98409566D01*
X116506244Y-102287888D01*
X101706285Y-102287888D01*
X101386745Y-102351448D01*
X101115851Y-102532454D01*
X98676849Y-104971456D01*
X98551925Y-104669116D01*
X98289135Y-104405867D01*
X98046898Y-104305281D01*
X97811184Y-104069567D01*
X97690390Y-103988855D01*
X97540291Y-103888562D01*
X97220750Y-103825001D01*
X93759999Y-103825001D01*
X93440459Y-103888561D01*
X93174401Y-104066335D01*
X92931057Y-104166883D01*
X92667808Y-104429673D01*
X92525162Y-104773201D01*
X92525100Y-104844232D01*
X88127000Y-100446132D01*
X88127000Y-95214873D01*
X98064812Y-95214873D01*
X98229646Y-95613800D01*
X98534595Y-95919282D01*
X98641300Y-95963590D01*
X101338855Y-98661145D01*
X101642191Y-98863827D01*
X102000000Y-98935000D01*
X104572448Y-98935000D01*
X104933233Y-99084811D01*
X105364873Y-99085188D01*
X105728354Y-98935000D01*
X112055706Y-98935000D01*
X112109577Y-98924284D01*
X112251627Y-98924408D01*
X112384069Y-98869684D01*
X112413515Y-98863827D01*
X112438260Y-98847293D01*
X112595403Y-98782363D01*
X112716796Y-98661182D01*
X112716851Y-98661145D01*
X112727314Y-98650682D01*
X112858652Y-98519573D01*
X113001298Y-98176045D01*
X113001622Y-97804079D01*
X112859577Y-97460303D01*
X112596787Y-97197054D01*
X112253259Y-97054408D01*
X111881293Y-97054084D01*
X111854874Y-97065000D01*
X105727552Y-97065000D01*
X105366767Y-96915189D01*
X104935127Y-96914812D01*
X104571646Y-97065000D01*
X102387290Y-97065000D01*
X101695981Y-96373691D01*
X120740000Y-96373691D01*
X120740000Y-96714250D01*
X120898750Y-96873000D01*
X121873000Y-96873000D01*
X121873000Y-96023750D01*
X122127000Y-96023750D01*
X122127000Y-96873000D01*
X123101250Y-96873000D01*
X123260000Y-96714250D01*
X123260000Y-96623691D01*
X124215000Y-96623691D01*
X124215000Y-96814250D01*
X124373750Y-96973000D01*
X125373000Y-96973000D01*
X125373000Y-96273750D01*
X125627000Y-96273750D01*
X125627000Y-96973000D01*
X126626250Y-96973000D01*
X126785000Y-96814250D01*
X126785000Y-96623691D01*
X126688327Y-96390302D01*
X126512899Y-96214873D01*
X132934812Y-96214873D01*
X133099646Y-96613800D01*
X133404595Y-96919282D01*
X133767814Y-97070104D01*
X133835000Y-97137290D01*
X133835000Y-97189806D01*
X133802560Y-97350000D01*
X133802560Y-99350000D01*
X133846838Y-99585317D01*
X133985910Y-99801441D01*
X134198110Y-99946431D01*
X134450000Y-99997440D01*
X135090000Y-99997440D01*
X135325317Y-99953162D01*
X135541441Y-99814090D01*
X135686431Y-99601890D01*
X135737440Y-99350000D01*
X135737440Y-97350000D01*
X135705000Y-97177596D01*
X135705000Y-96750000D01*
X135633827Y-96392191D01*
X135431145Y-96088855D01*
X135089536Y-95747246D01*
X134940354Y-95386200D01*
X134635405Y-95080718D01*
X134236767Y-94915189D01*
X133805127Y-94914812D01*
X133406200Y-95079646D01*
X133100718Y-95384595D01*
X132935189Y-95783233D01*
X132934812Y-96214873D01*
X126512899Y-96214873D01*
X126509699Y-96211673D01*
X126276310Y-96115000D01*
X125785750Y-96115000D01*
X125627000Y-96273750D01*
X125373000Y-96273750D01*
X125214250Y-96115000D01*
X124723690Y-96115000D01*
X124490301Y-96211673D01*
X124311673Y-96390302D01*
X124215000Y-96623691D01*
X123260000Y-96623691D01*
X123260000Y-96373691D01*
X123163327Y-96140302D01*
X122984699Y-95961673D01*
X122751310Y-95865000D01*
X122285750Y-95865000D01*
X122127000Y-96023750D01*
X121873000Y-96023750D01*
X121714250Y-95865000D01*
X121248690Y-95865000D01*
X121015301Y-95961673D01*
X120836673Y-96140302D01*
X120740000Y-96373691D01*
X101695981Y-96373691D01*
X100235077Y-94912787D01*
X100235188Y-94785127D01*
X100070354Y-94386200D01*
X99765405Y-94080718D01*
X99366767Y-93915189D01*
X98935127Y-93914812D01*
X98536200Y-94079646D01*
X98230718Y-94384595D01*
X98065189Y-94783233D01*
X98064812Y-95214873D01*
X88127000Y-95214873D01*
X88127000Y-93885750D01*
X120165000Y-93885750D01*
X120165000Y-94726309D01*
X120261673Y-94959698D01*
X120440301Y-95138327D01*
X120673690Y-95235000D01*
X121514250Y-95235000D01*
X121673000Y-95076250D01*
X121673000Y-93727000D01*
X121927000Y-93727000D01*
X121927000Y-95076250D01*
X122085750Y-95235000D01*
X122926310Y-95235000D01*
X123159699Y-95138327D01*
X123338327Y-94959698D01*
X123435000Y-94726309D01*
X123435000Y-93885750D01*
X123276250Y-93727000D01*
X121927000Y-93727000D01*
X121673000Y-93727000D01*
X120323750Y-93727000D01*
X120165000Y-93885750D01*
X88127000Y-93885750D01*
X88127000Y-92473691D01*
X120165000Y-92473691D01*
X120165000Y-93314250D01*
X120323750Y-93473000D01*
X121673000Y-93473000D01*
X121673000Y-92123750D01*
X121927000Y-92123750D01*
X121927000Y-93473000D01*
X123276250Y-93473000D01*
X123435000Y-93314250D01*
X123435000Y-92600000D01*
X135552560Y-92600000D01*
X135552560Y-94600000D01*
X135596838Y-94835317D01*
X135735910Y-95051441D01*
X135948110Y-95196431D01*
X136200000Y-95247440D01*
X138200000Y-95247440D01*
X138435317Y-95203162D01*
X138651441Y-95064090D01*
X138796431Y-94851890D01*
X138847440Y-94600000D01*
X138847440Y-92600000D01*
X138803162Y-92364683D01*
X138664090Y-92148559D01*
X138451890Y-92003569D01*
X138200000Y-91952560D01*
X136200000Y-91952560D01*
X135964683Y-91996838D01*
X135748559Y-92135910D01*
X135603569Y-92348110D01*
X135552560Y-92600000D01*
X123435000Y-92600000D01*
X123435000Y-92473691D01*
X123338327Y-92240302D01*
X123159699Y-92061673D01*
X122926310Y-91965000D01*
X122085750Y-91965000D01*
X121927000Y-92123750D01*
X121673000Y-92123750D01*
X121514250Y-91965000D01*
X120673690Y-91965000D01*
X120440301Y-92061673D01*
X120261673Y-92240302D01*
X120165000Y-92473691D01*
X88127000Y-92473691D01*
X88127000Y-85685000D01*
X135702601Y-85685000D01*
X135509342Y-85764853D01*
X135509342Y-85764853D01*
G37*
X135509342Y-85764853D02*
X134767458Y-86505443D01*
X134365458Y-87473567D01*
X134364543Y-88521834D01*
X134764853Y-89490658D01*
X135505443Y-90232542D01*
X136473567Y-90634542D01*
X137521834Y-90635457D01*
X138490658Y-90235147D01*
X139232542Y-89494557D01*
X139315000Y-89295976D01*
X139315000Y-100873000D01*
X127500000Y-100873000D01*
X127452211Y-100882334D01*
X127410197Y-100910197D01*
X119910197Y-108410197D01*
X119883006Y-108450590D01*
X119873000Y-108500000D01*
X119873000Y-127447394D01*
X116910197Y-130410197D01*
X116883006Y-130450590D01*
X116873000Y-130500000D01*
X116873000Y-139315000D01*
X80685000Y-139315000D01*
X80685000Y-136424040D01*
X81114885Y-136424040D01*
X81324983Y-137132194D01*
X81790087Y-137706042D01*
X82439389Y-138058221D01*
X82580355Y-138087695D01*
X82873000Y-137971572D01*
X82873000Y-136127000D01*
X83127000Y-136127000D01*
X83127000Y-137971572D01*
X83419645Y-138087695D01*
X83560611Y-138058221D01*
X84209913Y-137706042D01*
X84675017Y-137132194D01*
X84885115Y-136424040D01*
X84730382Y-136127000D01*
X83127000Y-136127000D01*
X82873000Y-136127000D01*
X81269618Y-136127000D01*
X81114885Y-136424040D01*
X80685000Y-136424040D01*
X80685000Y-135575960D01*
X81114885Y-135575960D01*
X81269618Y-135873000D01*
X82873000Y-135873000D01*
X82873000Y-134028428D01*
X83127000Y-134028428D01*
X83127000Y-135873000D01*
X84730382Y-135873000D01*
X84885115Y-135575960D01*
X84675017Y-134867806D01*
X84209913Y-134293958D01*
X83560611Y-133941779D01*
X83419645Y-133912305D01*
X83127000Y-134028428D01*
X82873000Y-134028428D01*
X82580355Y-133912305D01*
X82439389Y-133941779D01*
X81790087Y-134293958D01*
X81324983Y-134867806D01*
X81114885Y-135575960D01*
X80685000Y-135575960D01*
X80685000Y-132127000D01*
X87165000Y-132127000D01*
X87165000Y-134042593D01*
X86667104Y-134375277D01*
X86258487Y-134986815D01*
X86115000Y-135708173D01*
X86115000Y-136291827D01*
X86258487Y-137013185D01*
X86667104Y-137624723D01*
X87278642Y-138033340D01*
X88000000Y-138176827D01*
X88721358Y-138033340D01*
X89332896Y-137624723D01*
X89741513Y-137013185D01*
X89885000Y-136291827D01*
X89885000Y-135708173D01*
X91115000Y-135708173D01*
X91115000Y-136291827D01*
X91258487Y-137013185D01*
X91667104Y-137624723D01*
X92278642Y-138033340D01*
X93000000Y-138176827D01*
X93721358Y-138033340D01*
X94332896Y-137624723D01*
X94741513Y-137013185D01*
X94885000Y-136291827D01*
X94885000Y-135708173D01*
X94741513Y-134986815D01*
X94332896Y-134375277D01*
X93721358Y-133966660D01*
X93000000Y-133823173D01*
X92278642Y-133966660D01*
X91667104Y-134375277D01*
X91258487Y-134986815D01*
X91115000Y-135708173D01*
X89885000Y-135708173D01*
X89741513Y-134986815D01*
X89332896Y-134375277D01*
X88835000Y-134042593D01*
X88835000Y-130185167D01*
X113064838Y-130185167D01*
X113206883Y-130528943D01*
X113469673Y-130792192D01*
X113813201Y-130934838D01*
X114185167Y-130935162D01*
X114528943Y-130793117D01*
X114792192Y-130530327D01*
X114892778Y-130288090D01*
X119090434Y-126090434D01*
X119271439Y-125819541D01*
X119335000Y-125500000D01*
X119335000Y-123000000D01*
X119322103Y-122935162D01*
X119271440Y-122680460D01*
X119090434Y-122409566D01*
X118335000Y-121654132D01*
X118335000Y-121427234D01*
X118434838Y-121186799D01*
X118435162Y-120814833D01*
X118293117Y-120471057D01*
X118030327Y-120207808D01*
X117686799Y-120065162D01*
X117314833Y-120064838D01*
X116971057Y-120206883D01*
X116707808Y-120469673D01*
X116565162Y-120813201D01*
X116564838Y-121185167D01*
X116665000Y-121427578D01*
X116665000Y-122000000D01*
X116728561Y-122319541D01*
X116788714Y-122409566D01*
X116909566Y-122590434D01*
X117665000Y-123345868D01*
X117665000Y-125154132D01*
X113711667Y-129107465D01*
X113471057Y-129206883D01*
X113207808Y-129469673D01*
X113065162Y-129813201D01*
X113064838Y-130185167D01*
X88835000Y-130185167D01*
X88835000Y-129345868D01*
X95288333Y-122892535D01*
X95528943Y-122793117D01*
X95792192Y-122530327D01*
X95934838Y-122186799D01*
X95935162Y-121814833D01*
X95793117Y-121471057D01*
X95530327Y-121207808D01*
X95186799Y-121065162D01*
X94814833Y-121064838D01*
X94471057Y-121206883D01*
X94207808Y-121469673D01*
X94107222Y-121711910D01*
X88127000Y-127692132D01*
X88127000Y-104307868D01*
X99796266Y-115977134D01*
X99796266Y-118324040D01*
X99859827Y-118643581D01*
X99884469Y-118680460D01*
X100040832Y-118914474D01*
X100716792Y-119590434D01*
X100987686Y-119771440D01*
X101307226Y-119835000D01*
X114000000Y-119835000D01*
X114319541Y-119771439D01*
X114590434Y-119590434D01*
X115288333Y-118892535D01*
X115528943Y-118793117D01*
X115792192Y-118530327D01*
X115934838Y-118186799D01*
X115935162Y-117814833D01*
X115793117Y-117471057D01*
X115530327Y-117207808D01*
X115186799Y-117065162D01*
X114934944Y-117064943D01*
X114935162Y-116814833D01*
X114835000Y-116572422D01*
X114835000Y-107927234D01*
X114934838Y-107686799D01*
X114935162Y-107314833D01*
X114793117Y-106971057D01*
X114530327Y-106707808D01*
X114186799Y-106565162D01*
X113814833Y-106564838D01*
X113471057Y-106706883D01*
X113207808Y-106969673D01*
X113065162Y-107313201D01*
X113064838Y-107685167D01*
X113165000Y-107927578D01*
X113165000Y-116572766D01*
X113065162Y-116813201D01*
X113064838Y-117185167D01*
X113206883Y-117528943D01*
X113469673Y-117792192D01*
X113813201Y-117934838D01*
X113884232Y-117934900D01*
X113654132Y-118165000D01*
X107157307Y-118165000D01*
X107292192Y-118030350D01*
X107434838Y-117686822D01*
X107435162Y-117314856D01*
X107346349Y-117099912D01*
X107434838Y-116886809D01*
X107434883Y-116835000D01*
X111707766Y-116835000D01*
X111948201Y-116934838D01*
X112320167Y-116935162D01*
X112663943Y-116793117D01*
X112927192Y-116530327D01*
X113069838Y-116186799D01*
X113070162Y-115814833D01*
X112928117Y-115471057D01*
X112665327Y-115207808D01*
X112321799Y-115065162D01*
X111949833Y-115064838D01*
X111707422Y-115165000D01*
X102845868Y-115165000D01*
X95015868Y-107335000D01*
X98329173Y-107335000D01*
X98648714Y-107271439D01*
X98919607Y-107090434D01*
X102052153Y-103957888D01*
X107575286Y-103957888D01*
X107440191Y-104283233D01*
X107439814Y-104714873D01*
X107604648Y-105113800D01*
X107909597Y-105419282D01*
X108308235Y-105584811D01*
X108739875Y-105585188D01*
X109103356Y-105435000D01*
X118000000Y-105435000D01*
X118357809Y-105363827D01*
X118661145Y-105161145D01*
X121752754Y-102069536D01*
X122113800Y-101920354D01*
X122419282Y-101615405D01*
X122584811Y-101216767D01*
X122585188Y-100785127D01*
X122420354Y-100386200D01*
X122182011Y-100147440D01*
X122625000Y-100147440D01*
X122860317Y-100103162D01*
X123076441Y-99964090D01*
X123164644Y-99835000D01*
X124435025Y-99835000D01*
X124598110Y-99946431D01*
X124850000Y-99997440D01*
X126150000Y-99997440D01*
X126385317Y-99953162D01*
X126568946Y-99835000D01*
X127050000Y-99835000D01*
X127369541Y-99771439D01*
X127640434Y-99590434D01*
X127933428Y-99297440D01*
X128400000Y-99297440D01*
X128635317Y-99253162D01*
X128851441Y-99114090D01*
X128996431Y-98901890D01*
X128999081Y-98888803D01*
X129135910Y-99101441D01*
X129348110Y-99246431D01*
X129600000Y-99297440D01*
X130300000Y-99297440D01*
X130535317Y-99253162D01*
X130751441Y-99114090D01*
X130896431Y-98901890D01*
X130909977Y-98835000D01*
X131262560Y-98835000D01*
X131262560Y-99350000D01*
X131306838Y-99585317D01*
X131445910Y-99801441D01*
X131658110Y-99946431D01*
X131910000Y-99997440D01*
X132550000Y-99997440D01*
X132785317Y-99953162D01*
X133001441Y-99814090D01*
X133146431Y-99601890D01*
X133197440Y-99350000D01*
X133197440Y-97350000D01*
X133153162Y-97114683D01*
X133014090Y-96898559D01*
X132801890Y-96753569D01*
X132550000Y-96702560D01*
X131910000Y-96702560D01*
X131674683Y-96746838D01*
X131458559Y-96885910D01*
X131313569Y-97098110D01*
X131300023Y-97165000D01*
X130912630Y-97165000D01*
X130903162Y-97114683D01*
X130764090Y-96898559D01*
X130551890Y-96753569D01*
X130300000Y-96702560D01*
X129600000Y-96702560D01*
X129364683Y-96746838D01*
X129148559Y-96885910D01*
X129003569Y-97098110D01*
X129000919Y-97111197D01*
X128864090Y-96898559D01*
X128651890Y-96753569D01*
X128400000Y-96702560D01*
X127700000Y-96702560D01*
X127464683Y-96746838D01*
X127248559Y-96885910D01*
X127103569Y-97098110D01*
X127052560Y-97350000D01*
X127052560Y-97816572D01*
X126704132Y-98165000D01*
X126564975Y-98165000D01*
X126401890Y-98053569D01*
X126368510Y-98046809D01*
X126509699Y-97988327D01*
X126688327Y-97809698D01*
X126785000Y-97576309D01*
X126785000Y-97385750D01*
X126626250Y-97227000D01*
X125627000Y-97227000D01*
X125627000Y-97247000D01*
X125373000Y-97247000D01*
X125373000Y-97227000D01*
X124373750Y-97227000D01*
X124215000Y-97385750D01*
X124215000Y-97576309D01*
X124311673Y-97809698D01*
X124490301Y-97988327D01*
X124626287Y-98044654D01*
X124614683Y-98046838D01*
X124431054Y-98165000D01*
X123164018Y-98165000D01*
X123089090Y-98048559D01*
X123020994Y-98002031D01*
X123163327Y-97859698D01*
X123260000Y-97626309D01*
X123260000Y-97285750D01*
X123101250Y-97127000D01*
X122127000Y-97127000D01*
X122127000Y-97147000D01*
X121873000Y-97147000D01*
X121873000Y-97127000D01*
X120898750Y-97127000D01*
X120740000Y-97285750D01*
X120740000Y-97626309D01*
X120836673Y-97859698D01*
X120977910Y-98000936D01*
X120923559Y-98035910D01*
X120813391Y-98197146D01*
X120655460Y-98228560D01*
X120384566Y-98409566D01*
X116506244Y-102287888D01*
X101706285Y-102287888D01*
X101386745Y-102351448D01*
X101115851Y-102532454D01*
X98676849Y-104971456D01*
X98551925Y-104669116D01*
X98289135Y-104405867D01*
X98046898Y-104305281D01*
X97811184Y-104069567D01*
X97690390Y-103988855D01*
X97540291Y-103888562D01*
X97220750Y-103825001D01*
X93759999Y-103825001D01*
X93440459Y-103888561D01*
X93174401Y-104066335D01*
X92931057Y-104166883D01*
X92667808Y-104429673D01*
X92525162Y-104773201D01*
X92525100Y-104844232D01*
X88127000Y-100446132D01*
X88127000Y-95214873D01*
X98064812Y-95214873D01*
X98229646Y-95613800D01*
X98534595Y-95919282D01*
X98641300Y-95963590D01*
X101338855Y-98661145D01*
X101642191Y-98863827D01*
X102000000Y-98935000D01*
X104572448Y-98935000D01*
X104933233Y-99084811D01*
X105364873Y-99085188D01*
X105728354Y-98935000D01*
X112055706Y-98935000D01*
X112109577Y-98924284D01*
X112251627Y-98924408D01*
X112384069Y-98869684D01*
X112413515Y-98863827D01*
X112438260Y-98847293D01*
X112595403Y-98782363D01*
X112716796Y-98661182D01*
X112716851Y-98661145D01*
X112727314Y-98650682D01*
X112858652Y-98519573D01*
X113001298Y-98176045D01*
X113001622Y-97804079D01*
X112859577Y-97460303D01*
X112596787Y-97197054D01*
X112253259Y-97054408D01*
X111881293Y-97054084D01*
X111854874Y-97065000D01*
X105727552Y-97065000D01*
X105366767Y-96915189D01*
X104935127Y-96914812D01*
X104571646Y-97065000D01*
X102387290Y-97065000D01*
X101695981Y-96373691D01*
X120740000Y-96373691D01*
X120740000Y-96714250D01*
X120898750Y-96873000D01*
X121873000Y-96873000D01*
X121873000Y-96023750D01*
X122127000Y-96023750D01*
X122127000Y-96873000D01*
X123101250Y-96873000D01*
X123260000Y-96714250D01*
X123260000Y-96623691D01*
X124215000Y-96623691D01*
X124215000Y-96814250D01*
X124373750Y-96973000D01*
X125373000Y-96973000D01*
X125373000Y-96273750D01*
X125627000Y-96273750D01*
X125627000Y-96973000D01*
X126626250Y-96973000D01*
X126785000Y-96814250D01*
X126785000Y-96623691D01*
X126688327Y-96390302D01*
X126512899Y-96214873D01*
X132934812Y-96214873D01*
X133099646Y-96613800D01*
X133404595Y-96919282D01*
X133767814Y-97070104D01*
X133835000Y-97137290D01*
X133835000Y-97189806D01*
X133802560Y-97350000D01*
X133802560Y-99350000D01*
X133846838Y-99585317D01*
X133985910Y-99801441D01*
X134198110Y-99946431D01*
X134450000Y-99997440D01*
X135090000Y-99997440D01*
X135325317Y-99953162D01*
X135541441Y-99814090D01*
X135686431Y-99601890D01*
X135737440Y-99350000D01*
X135737440Y-97350000D01*
X135705000Y-97177596D01*
X135705000Y-96750000D01*
X135633827Y-96392191D01*
X135431145Y-96088855D01*
X135089536Y-95747246D01*
X134940354Y-95386200D01*
X134635405Y-95080718D01*
X134236767Y-94915189D01*
X133805127Y-94914812D01*
X133406200Y-95079646D01*
X133100718Y-95384595D01*
X132935189Y-95783233D01*
X132934812Y-96214873D01*
X126512899Y-96214873D01*
X126509699Y-96211673D01*
X126276310Y-96115000D01*
X125785750Y-96115000D01*
X125627000Y-96273750D01*
X125373000Y-96273750D01*
X125214250Y-96115000D01*
X124723690Y-96115000D01*
X124490301Y-96211673D01*
X124311673Y-96390302D01*
X124215000Y-96623691D01*
X123260000Y-96623691D01*
X123260000Y-96373691D01*
X123163327Y-96140302D01*
X122984699Y-95961673D01*
X122751310Y-95865000D01*
X122285750Y-95865000D01*
X122127000Y-96023750D01*
X121873000Y-96023750D01*
X121714250Y-95865000D01*
X121248690Y-95865000D01*
X121015301Y-95961673D01*
X120836673Y-96140302D01*
X120740000Y-96373691D01*
X101695981Y-96373691D01*
X100235077Y-94912787D01*
X100235188Y-94785127D01*
X100070354Y-94386200D01*
X99765405Y-94080718D01*
X99366767Y-93915189D01*
X98935127Y-93914812D01*
X98536200Y-94079646D01*
X98230718Y-94384595D01*
X98065189Y-94783233D01*
X98064812Y-95214873D01*
X88127000Y-95214873D01*
X88127000Y-93885750D01*
X120165000Y-93885750D01*
X120165000Y-94726309D01*
X120261673Y-94959698D01*
X120440301Y-95138327D01*
X120673690Y-95235000D01*
X121514250Y-95235000D01*
X121673000Y-95076250D01*
X121673000Y-93727000D01*
X121927000Y-93727000D01*
X121927000Y-95076250D01*
X122085750Y-95235000D01*
X122926310Y-95235000D01*
X123159699Y-95138327D01*
X123338327Y-94959698D01*
X123435000Y-94726309D01*
X123435000Y-93885750D01*
X123276250Y-93727000D01*
X121927000Y-93727000D01*
X121673000Y-93727000D01*
X120323750Y-93727000D01*
X120165000Y-93885750D01*
X88127000Y-93885750D01*
X88127000Y-92473691D01*
X120165000Y-92473691D01*
X120165000Y-93314250D01*
X120323750Y-93473000D01*
X121673000Y-93473000D01*
X121673000Y-92123750D01*
X121927000Y-92123750D01*
X121927000Y-93473000D01*
X123276250Y-93473000D01*
X123435000Y-93314250D01*
X123435000Y-92600000D01*
X135552560Y-92600000D01*
X135552560Y-94600000D01*
X135596838Y-94835317D01*
X135735910Y-95051441D01*
X135948110Y-95196431D01*
X136200000Y-95247440D01*
X138200000Y-95247440D01*
X138435317Y-95203162D01*
X138651441Y-95064090D01*
X138796431Y-94851890D01*
X138847440Y-94600000D01*
X138847440Y-92600000D01*
X138803162Y-92364683D01*
X138664090Y-92148559D01*
X138451890Y-92003569D01*
X138200000Y-91952560D01*
X136200000Y-91952560D01*
X135964683Y-91996838D01*
X135748559Y-92135910D01*
X135603569Y-92348110D01*
X135552560Y-92600000D01*
X123435000Y-92600000D01*
X123435000Y-92473691D01*
X123338327Y-92240302D01*
X123159699Y-92061673D01*
X122926310Y-91965000D01*
X122085750Y-91965000D01*
X121927000Y-92123750D01*
X121673000Y-92123750D01*
X121514250Y-91965000D01*
X120673690Y-91965000D01*
X120440301Y-92061673D01*
X120261673Y-92240302D01*
X120165000Y-92473691D01*
X88127000Y-92473691D01*
X88127000Y-85685000D01*
X135702601Y-85685000D01*
X135509342Y-85764853D01*
M02*
