M48
;DRILL file {KiCad 4.0.7-e2-6376~58~ubuntu16.04.1} date Sat Mar  3 01:45:30 2018
;FORMAT={-:-/ absolute / inch / decimal}
FMAT,2
INCH,TZ
T1C0.016
T2C0.024
T3C0.035
T4C0.051
T5C0.087
%
G90
G05
M72
T1
X3.3465Y-3.8189
X3.4646Y-4.0551
X3.6795Y-4.1323
X3.7402Y-4.8031
X3.8189Y-4.1614
X3.9894Y-4.5866
X3.9894Y-4.624
X4.1929Y-4.5945
X4.1929Y-4.626
X4.4148Y-4.5669
X4.4882Y-4.2323
X4.4882Y-4.6063
X4.5276Y-4.6457
X4.626Y-4.7638
X4.626Y-5.1575
T2
X3.4843Y-3.8583
X3.6052Y-5.1153
X3.8976Y-3.8819
X3.937Y-3.563
X4.1339Y-3.9764
X4.1732Y-4.8819
X4.1768Y-3.7402
X4.2323Y-4.2323
X4.2913Y-3.622
X4.6199Y-4.9213
X4.6654Y-3.8583
T3
X4.7953Y-3.685
X5.Y-4.8425
X5.1969Y-4.8425
X5.4016Y-3.685
T4
X3.2677Y-5.3543
X3.4646Y-5.3543
X3.6614Y-5.3543
X5.Y-5.3543
X5.1969Y-5.3543
T5
X3.2677Y-3.4646
X3.2677Y-5.0787
X5.3937Y-3.4646
X5.3937Y-5.0787
T0
M30
