G04 #@! TF.FileFunction,Legend,Top*
%FSLAX46Y46*%
G04 Gerber Fmt 4.6, Leading zero omitted, Abs format (unit mm)*
G04 Created by KiCad (PCBNEW 4.0.7-e2-6376~58~ubuntu16.04.1) date Sat Mar  3 01:45:26 2018*
%MOMM*%
%LPD*%
G01*
G04 APERTURE LIST*
%ADD10C,0.100000*%
%ADD11C,0.300000*%
%ADD12C,0.250000*%
%ADD13C,0.120000*%
%ADD14C,0.150000*%
G04 APERTURE END LIST*
D10*
D11*
X123107144Y-87035714D02*
X123035715Y-87107143D01*
X122821429Y-87178571D01*
X122678572Y-87178571D01*
X122464287Y-87107143D01*
X122321429Y-86964286D01*
X122250001Y-86821429D01*
X122178572Y-86535714D01*
X122178572Y-86321429D01*
X122250001Y-86035714D01*
X122321429Y-85892857D01*
X122464287Y-85750000D01*
X122678572Y-85678571D01*
X122821429Y-85678571D01*
X123035715Y-85750000D01*
X123107144Y-85821429D01*
X124607144Y-87035714D02*
X124535715Y-87107143D01*
X124321429Y-87178571D01*
X124178572Y-87178571D01*
X123964287Y-87107143D01*
X123821429Y-86964286D01*
X123750001Y-86821429D01*
X123678572Y-86535714D01*
X123678572Y-86321429D01*
X123750001Y-86035714D01*
X123821429Y-85892857D01*
X123964287Y-85750000D01*
X124178572Y-85678571D01*
X124321429Y-85678571D01*
X124535715Y-85750000D01*
X124607144Y-85821429D01*
X125250001Y-86607143D02*
X126392858Y-86607143D01*
X127607144Y-86392857D02*
X127821430Y-86464286D01*
X127892858Y-86535714D01*
X127964287Y-86678571D01*
X127964287Y-86892857D01*
X127892858Y-87035714D01*
X127821430Y-87107143D01*
X127678572Y-87178571D01*
X127107144Y-87178571D01*
X127107144Y-85678571D01*
X127607144Y-85678571D01*
X127750001Y-85750000D01*
X127821430Y-85821429D01*
X127892858Y-85964286D01*
X127892858Y-86107143D01*
X127821430Y-86250000D01*
X127750001Y-86321429D01*
X127607144Y-86392857D01*
X127107144Y-86392857D01*
X128892858Y-86464286D02*
X128892858Y-87178571D01*
X128392858Y-85678571D02*
X128892858Y-86464286D01*
X129392858Y-85678571D01*
X129892858Y-86607143D02*
X131035715Y-86607143D01*
X131678572Y-87107143D02*
X131892858Y-87178571D01*
X132250001Y-87178571D01*
X132392858Y-87107143D01*
X132464287Y-87035714D01*
X132535715Y-86892857D01*
X132535715Y-86750000D01*
X132464287Y-86607143D01*
X132392858Y-86535714D01*
X132250001Y-86464286D01*
X131964287Y-86392857D01*
X131821429Y-86321429D01*
X131750001Y-86250000D01*
X131678572Y-86107143D01*
X131678572Y-85964286D01*
X131750001Y-85821429D01*
X131821429Y-85750000D01*
X131964287Y-85678571D01*
X132321429Y-85678571D01*
X132535715Y-85750000D01*
X133107143Y-86750000D02*
X133821429Y-86750000D01*
X132964286Y-87178571D02*
X133464286Y-85678571D01*
X133964286Y-87178571D01*
X104107144Y-87178571D02*
X104107144Y-85678571D01*
X104464287Y-85678571D01*
X104678572Y-85750000D01*
X104821430Y-85892857D01*
X104892858Y-86035714D01*
X104964287Y-86321429D01*
X104964287Y-86535714D01*
X104892858Y-86821429D01*
X104821430Y-86964286D01*
X104678572Y-87107143D01*
X104464287Y-87178571D01*
X104107144Y-87178571D01*
X105892858Y-85678571D02*
X106178572Y-85678571D01*
X106321430Y-85750000D01*
X106464287Y-85892857D01*
X106535715Y-86178571D01*
X106535715Y-86678571D01*
X106464287Y-86964286D01*
X106321430Y-87107143D01*
X106178572Y-87178571D01*
X105892858Y-87178571D01*
X105750001Y-87107143D01*
X105607144Y-86964286D01*
X105535715Y-86678571D01*
X105535715Y-86178571D01*
X105607144Y-85892857D01*
X105750001Y-85750000D01*
X105892858Y-85678571D01*
X107821430Y-85678571D02*
X107535716Y-85678571D01*
X107392859Y-85750000D01*
X107321430Y-85821429D01*
X107178573Y-86035714D01*
X107107144Y-86321429D01*
X107107144Y-86892857D01*
X107178573Y-87035714D01*
X107250001Y-87107143D01*
X107392859Y-87178571D01*
X107678573Y-87178571D01*
X107821430Y-87107143D01*
X107892859Y-87035714D01*
X107964287Y-86892857D01*
X107964287Y-86535714D01*
X107892859Y-86392857D01*
X107821430Y-86321429D01*
X107678573Y-86250000D01*
X107392859Y-86250000D01*
X107250001Y-86321429D01*
X107178573Y-86392857D01*
X107107144Y-86535714D01*
X108392858Y-85678571D02*
X109250001Y-85678571D01*
X108821430Y-87178571D02*
X108821430Y-85678571D01*
X109678572Y-87107143D02*
X109892858Y-87178571D01*
X110250001Y-87178571D01*
X110392858Y-87107143D01*
X110464287Y-87035714D01*
X110535715Y-86892857D01*
X110535715Y-86750000D01*
X110464287Y-86607143D01*
X110392858Y-86535714D01*
X110250001Y-86464286D01*
X109964287Y-86392857D01*
X109821429Y-86321429D01*
X109750001Y-86250000D01*
X109678572Y-86107143D01*
X109678572Y-85964286D01*
X109750001Y-85821429D01*
X109821429Y-85750000D01*
X109964287Y-85678571D01*
X110321429Y-85678571D01*
X110535715Y-85750000D01*
X111964286Y-87178571D02*
X111107143Y-87178571D01*
X111535715Y-87178571D02*
X111535715Y-85678571D01*
X111392858Y-85892857D01*
X111250000Y-86035714D01*
X111107143Y-86107143D01*
X112535714Y-86750000D02*
X113250000Y-86750000D01*
X112392857Y-87178571D02*
X112892857Y-85678571D01*
X113392857Y-87178571D01*
X115821428Y-87178571D02*
X114964285Y-87178571D01*
X115392857Y-87178571D02*
X115392857Y-85678571D01*
X115250000Y-85892857D01*
X115107142Y-86035714D01*
X114964285Y-86107143D01*
X116464285Y-87035714D02*
X116535713Y-87107143D01*
X116464285Y-87178571D01*
X116392856Y-87107143D01*
X116464285Y-87035714D01*
X116464285Y-87178571D01*
X117464285Y-85678571D02*
X117607142Y-85678571D01*
X117749999Y-85750000D01*
X117821428Y-85821429D01*
X117892857Y-85964286D01*
X117964285Y-86250000D01*
X117964285Y-86607143D01*
X117892857Y-86892857D01*
X117821428Y-87035714D01*
X117749999Y-87107143D01*
X117607142Y-87178571D01*
X117464285Y-87178571D01*
X117321428Y-87107143D01*
X117249999Y-87035714D01*
X117178571Y-86892857D01*
X117107142Y-86607143D01*
X117107142Y-86250000D01*
X117178571Y-85964286D01*
X117249999Y-85821429D01*
X117321428Y-85750000D01*
X117464285Y-85678571D01*
X86250000Y-87178571D02*
X86250000Y-85678571D01*
X86607143Y-85678571D01*
X86821428Y-85750000D01*
X86964286Y-85892857D01*
X87035714Y-86035714D01*
X87107143Y-86321429D01*
X87107143Y-86535714D01*
X87035714Y-86821429D01*
X86964286Y-86964286D01*
X86821428Y-87107143D01*
X86607143Y-87178571D01*
X86250000Y-87178571D01*
X87750000Y-86392857D02*
X88250000Y-86392857D01*
X88464286Y-87178571D02*
X87750000Y-87178571D01*
X87750000Y-85678571D01*
X88464286Y-85678571D01*
X88892857Y-85678571D02*
X89392857Y-87178571D01*
X89892857Y-85678571D01*
X90392857Y-87178571D02*
X90392857Y-85678571D01*
X91964286Y-87035714D02*
X91892857Y-87107143D01*
X91678571Y-87178571D01*
X91535714Y-87178571D01*
X91321429Y-87107143D01*
X91178571Y-86964286D01*
X91107143Y-86821429D01*
X91035714Y-86535714D01*
X91035714Y-86321429D01*
X91107143Y-86035714D01*
X91178571Y-85892857D01*
X91321429Y-85750000D01*
X91535714Y-85678571D01*
X91678571Y-85678571D01*
X91892857Y-85750000D01*
X91964286Y-85821429D01*
X92607143Y-86392857D02*
X93107143Y-86392857D01*
X93321429Y-87178571D02*
X92607143Y-87178571D01*
X92607143Y-85678571D01*
X93321429Y-85678571D01*
X93964286Y-87035714D02*
X94035714Y-87107143D01*
X93964286Y-87178571D01*
X93892857Y-87107143D01*
X93964286Y-87035714D01*
X93964286Y-87178571D01*
X95178572Y-86392857D02*
X94678572Y-86392857D01*
X94678572Y-87178571D02*
X94678572Y-85678571D01*
X95392858Y-85678571D01*
X95892857Y-86750000D02*
X96607143Y-86750000D01*
X95750000Y-87178571D02*
X96250000Y-85678571D01*
X96750000Y-87178571D01*
X98107143Y-87178571D02*
X97607143Y-86464286D01*
X97250000Y-87178571D02*
X97250000Y-85678571D01*
X97821428Y-85678571D01*
X97964286Y-85750000D01*
X98035714Y-85821429D01*
X98107143Y-85964286D01*
X98107143Y-86178571D01*
X98035714Y-86321429D01*
X97964286Y-86392857D01*
X97821428Y-86464286D01*
X97250000Y-86464286D01*
X98750000Y-87178571D02*
X98750000Y-85678571D01*
X99250000Y-86750000D01*
X99750000Y-85678571D01*
X99750000Y-87178571D01*
X105678571Y-128678571D02*
X106535714Y-128678571D01*
X106107143Y-130178571D02*
X106107143Y-128678571D01*
X106821428Y-128678571D02*
X107678571Y-128678571D01*
X107250000Y-130178571D02*
X107250000Y-128678571D01*
X108892857Y-130178571D02*
X108178571Y-130178571D01*
X108178571Y-128678571D01*
X110821428Y-128678571D02*
X111107142Y-128678571D01*
X111250000Y-128750000D01*
X111392857Y-128892857D01*
X111464285Y-129178571D01*
X111464285Y-129678571D01*
X111392857Y-129964286D01*
X111250000Y-130107143D01*
X111107142Y-130178571D01*
X110821428Y-130178571D01*
X110678571Y-130107143D01*
X110535714Y-129964286D01*
X110464285Y-129678571D01*
X110464285Y-129178571D01*
X110535714Y-128892857D01*
X110678571Y-128750000D01*
X110821428Y-128678571D01*
X112107143Y-128678571D02*
X112107143Y-129892857D01*
X112178571Y-130035714D01*
X112250000Y-130107143D01*
X112392857Y-130178571D01*
X112678571Y-130178571D01*
X112821429Y-130107143D01*
X112892857Y-130035714D01*
X112964286Y-129892857D01*
X112964286Y-128678571D01*
X113464286Y-128678571D02*
X114321429Y-128678571D01*
X113892858Y-130178571D02*
X113892858Y-128678571D01*
X114535715Y-98678571D02*
X114535715Y-97178571D01*
X115178572Y-97321429D02*
X115250001Y-97250000D01*
X115392858Y-97178571D01*
X115750001Y-97178571D01*
X115892858Y-97250000D01*
X115964287Y-97321429D01*
X116035715Y-97464286D01*
X116035715Y-97607143D01*
X115964287Y-97821429D01*
X115107144Y-98678571D01*
X116035715Y-98678571D01*
X117535715Y-98535714D02*
X117464286Y-98607143D01*
X117250000Y-98678571D01*
X117107143Y-98678571D01*
X116892858Y-98607143D01*
X116750000Y-98464286D01*
X116678572Y-98321429D01*
X116607143Y-98035714D01*
X116607143Y-97821429D01*
X116678572Y-97535714D01*
X116750000Y-97392857D01*
X116892858Y-97250000D01*
X117107143Y-97178571D01*
X117250000Y-97178571D01*
X117464286Y-97250000D01*
X117535715Y-97321429D01*
X90464286Y-92892857D02*
X90964286Y-92892857D01*
X91178572Y-93678571D02*
X90464286Y-93678571D01*
X90464286Y-92178571D01*
X91178572Y-92178571D01*
X91750000Y-93607143D02*
X91964286Y-93678571D01*
X92321429Y-93678571D01*
X92464286Y-93607143D01*
X92535715Y-93535714D01*
X92607143Y-93392857D01*
X92607143Y-93250000D01*
X92535715Y-93107143D01*
X92464286Y-93035714D01*
X92321429Y-92964286D01*
X92035715Y-92892857D01*
X91892857Y-92821429D01*
X91821429Y-92750000D01*
X91750000Y-92607143D01*
X91750000Y-92464286D01*
X91821429Y-92321429D01*
X91892857Y-92250000D01*
X92035715Y-92178571D01*
X92392857Y-92178571D01*
X92607143Y-92250000D01*
X93250000Y-93678571D02*
X93250000Y-92178571D01*
X93821428Y-92178571D01*
X93964286Y-92250000D01*
X94035714Y-92321429D01*
X94107143Y-92464286D01*
X94107143Y-92678571D01*
X94035714Y-92821429D01*
X93964286Y-92892857D01*
X93821428Y-92964286D01*
X93250000Y-92964286D01*
X94750000Y-93678571D02*
X94750000Y-92178571D01*
X95321428Y-92178571D01*
X95464286Y-92250000D01*
X95535714Y-92321429D01*
X95607143Y-92464286D01*
X95607143Y-92678571D01*
X95535714Y-92821429D01*
X95464286Y-92892857D01*
X95321428Y-92964286D01*
X94750000Y-92964286D01*
X125607144Y-129821429D02*
X125678573Y-129750000D01*
X125821430Y-129678571D01*
X126178573Y-129678571D01*
X126321430Y-129750000D01*
X126392859Y-129821429D01*
X126464287Y-129964286D01*
X126464287Y-130107143D01*
X126392859Y-130321429D01*
X125535716Y-131178571D01*
X126464287Y-131178571D01*
X126964287Y-129678571D02*
X127892858Y-129678571D01*
X127392858Y-130250000D01*
X127607144Y-130250000D01*
X127750001Y-130321429D01*
X127821430Y-130392857D01*
X127892858Y-130535714D01*
X127892858Y-130892857D01*
X127821430Y-131035714D01*
X127750001Y-131107143D01*
X127607144Y-131178571D01*
X127178572Y-131178571D01*
X127035715Y-131107143D01*
X126964287Y-131035714D01*
X128821429Y-129678571D02*
X128964286Y-129678571D01*
X129107143Y-129750000D01*
X129178572Y-129821429D01*
X129250001Y-129964286D01*
X129321429Y-130250000D01*
X129321429Y-130607143D01*
X129250001Y-130892857D01*
X129178572Y-131035714D01*
X129107143Y-131107143D01*
X128964286Y-131178571D01*
X128821429Y-131178571D01*
X128678572Y-131107143D01*
X128607143Y-131035714D01*
X128535715Y-130892857D01*
X128464286Y-130607143D01*
X128464286Y-130250000D01*
X128535715Y-129964286D01*
X128607143Y-129821429D01*
X128678572Y-129750000D01*
X128821429Y-129678571D01*
X129750000Y-129678571D02*
X130250000Y-131178571D01*
X130750000Y-129678571D01*
X131178571Y-130750000D02*
X131892857Y-130750000D01*
X131035714Y-131178571D02*
X131535714Y-129678571D01*
X132035714Y-131178571D01*
X133392857Y-131035714D02*
X133321428Y-131107143D01*
X133107142Y-131178571D01*
X132964285Y-131178571D01*
X132750000Y-131107143D01*
X132607142Y-130964286D01*
X132535714Y-130821429D01*
X132464285Y-130535714D01*
X132464285Y-130321429D01*
X132535714Y-130035714D01*
X132607142Y-129892857D01*
X132750000Y-129750000D01*
X132964285Y-129678571D01*
X133107142Y-129678571D01*
X133321428Y-129750000D01*
X133392857Y-129821429D01*
D12*
X84809524Y-130452381D02*
X85380953Y-130452381D01*
X85095238Y-131452381D02*
X85095238Y-130452381D01*
X85666667Y-131404762D02*
X85809524Y-131452381D01*
X86047620Y-131452381D01*
X86142858Y-131404762D01*
X86190477Y-131357143D01*
X86238096Y-131261905D01*
X86238096Y-131166667D01*
X86190477Y-131071429D01*
X86142858Y-131023810D01*
X86047620Y-130976190D01*
X85857143Y-130928571D01*
X85761905Y-130880952D01*
X85714286Y-130833333D01*
X85666667Y-130738095D01*
X85666667Y-130642857D01*
X85714286Y-130547619D01*
X85761905Y-130500000D01*
X85857143Y-130452381D01*
X86095239Y-130452381D01*
X86238096Y-130500000D01*
X86666667Y-131357143D02*
X86714286Y-131404762D01*
X86666667Y-131452381D01*
X86619048Y-131404762D01*
X86666667Y-131357143D01*
X86666667Y-131452381D01*
X86666667Y-130833333D02*
X86714286Y-130880952D01*
X86666667Y-130928571D01*
X86619048Y-130880952D01*
X86666667Y-130833333D01*
X86666667Y-130928571D01*
X87666667Y-130500000D02*
X87571429Y-130452381D01*
X87428572Y-130452381D01*
X87285714Y-130500000D01*
X87190476Y-130595238D01*
X87142857Y-130690476D01*
X87095238Y-130880952D01*
X87095238Y-131023810D01*
X87142857Y-131214286D01*
X87190476Y-131309524D01*
X87285714Y-131404762D01*
X87428572Y-131452381D01*
X87523810Y-131452381D01*
X87666667Y-131404762D01*
X87714286Y-131357143D01*
X87714286Y-131023810D01*
X87523810Y-131023810D01*
X88142857Y-131452381D02*
X88142857Y-130452381D01*
X88714286Y-131452381D01*
X88714286Y-130452381D01*
X89190476Y-131452381D02*
X89190476Y-130452381D01*
X89428571Y-130452381D01*
X89571429Y-130500000D01*
X89666667Y-130595238D01*
X89714286Y-130690476D01*
X89761905Y-130880952D01*
X89761905Y-131023810D01*
X89714286Y-131214286D01*
X89666667Y-131309524D01*
X89571429Y-131404762D01*
X89428571Y-131452381D01*
X89190476Y-131452381D01*
X90904762Y-130404762D02*
X90047619Y-131690476D01*
X91238095Y-131452381D02*
X91238095Y-130452381D01*
X91476190Y-130452381D01*
X91619048Y-130500000D01*
X91714286Y-130595238D01*
X91761905Y-130690476D01*
X91809524Y-130880952D01*
X91809524Y-131023810D01*
X91761905Y-131214286D01*
X91714286Y-131309524D01*
X91619048Y-131404762D01*
X91476190Y-131452381D01*
X91238095Y-131452381D01*
X92190476Y-131166667D02*
X92666667Y-131166667D01*
X92095238Y-131452381D02*
X92428571Y-130452381D01*
X92761905Y-131452381D01*
X92952381Y-130452381D02*
X93523810Y-130452381D01*
X93238095Y-131452381D02*
X93238095Y-130452381D01*
X93809524Y-131166667D02*
X94285715Y-131166667D01*
X93714286Y-131452381D02*
X94047619Y-130452381D01*
X94380953Y-131452381D01*
X95428572Y-130404762D02*
X94571429Y-131690476D01*
X95666667Y-130452381D02*
X96285715Y-130452381D01*
X95952381Y-130833333D01*
X96095239Y-130833333D01*
X96190477Y-130880952D01*
X96238096Y-130928571D01*
X96285715Y-131023810D01*
X96285715Y-131261905D01*
X96238096Y-131357143D01*
X96190477Y-131404762D01*
X96095239Y-131452381D01*
X95809524Y-131452381D01*
X95714286Y-131404762D01*
X95666667Y-131357143D01*
X96571429Y-130452381D02*
X96904762Y-131452381D01*
X97238096Y-130452381D01*
X97476191Y-130452381D02*
X98095239Y-130452381D01*
X97761905Y-130833333D01*
X97904763Y-130833333D01*
X98000001Y-130880952D01*
X98047620Y-130928571D01*
X98095239Y-131023810D01*
X98095239Y-131261905D01*
X98047620Y-131357143D01*
X98000001Y-131404762D01*
X97904763Y-131452381D01*
X97619048Y-131452381D01*
X97523810Y-131404762D01*
X97476191Y-131357143D01*
D13*
X110850000Y-90500000D02*
X110850000Y-89500000D01*
X109150000Y-89500000D02*
X109150000Y-90500000D01*
X100500000Y-89850000D02*
X101500000Y-89850000D01*
X101500000Y-88150000D02*
X100500000Y-88150000D01*
X100500000Y-92850000D02*
X101500000Y-92850000D01*
X101500000Y-91150000D02*
X100500000Y-91150000D01*
X106150000Y-109500000D02*
X106150000Y-110500000D01*
X107850000Y-110500000D02*
X107850000Y-109500000D01*
X91150000Y-127500000D02*
X91150000Y-128500000D01*
X92850000Y-128500000D02*
X92850000Y-127500000D01*
X108150000Y-109500000D02*
X108150000Y-110500000D01*
X109850000Y-110500000D02*
X109850000Y-109500000D01*
X110150000Y-109500000D02*
X110150000Y-110500000D01*
X111850000Y-110500000D02*
X111850000Y-109500000D01*
X113240000Y-88420000D02*
X113240000Y-89350000D01*
X113240000Y-91580000D02*
X113240000Y-90650000D01*
X113240000Y-91580000D02*
X115400000Y-91580000D01*
X113240000Y-88420000D02*
X114700000Y-88420000D01*
X81300000Y-102800000D02*
X82700000Y-102800000D01*
X82700000Y-102800000D02*
X82700000Y-100000000D01*
X81300000Y-102800000D02*
X81300000Y-100000000D01*
X82700000Y-93100000D02*
X81300000Y-93100000D01*
X81300000Y-93100000D02*
X81300000Y-95900000D01*
X82700000Y-93100000D02*
X82700000Y-95900000D01*
D14*
X101440000Y-132500000D02*
X118560000Y-132500000D01*
X101440000Y-137500000D02*
X118560000Y-137500000D01*
X101440000Y-132500000D02*
X101440000Y-137500000D01*
X118560000Y-132500000D02*
X118560000Y-137500000D01*
X101440000Y-133500000D02*
X101940000Y-133500000D01*
X101940000Y-133500000D02*
X101940000Y-136500000D01*
X101440000Y-136500000D02*
X101940000Y-136500000D01*
X106615000Y-95500000D02*
X113575000Y-95500000D01*
X106615000Y-100500000D02*
X113575000Y-100500000D01*
X106615000Y-95500000D02*
X106615000Y-100500000D01*
X113575000Y-95500000D02*
X113575000Y-100500000D01*
X106615000Y-96500000D02*
X107115000Y-96500000D01*
X107115000Y-96500000D02*
X107115000Y-99500000D01*
X106615000Y-99500000D02*
X107115000Y-99500000D01*
D13*
X101650000Y-95880000D02*
X100450000Y-95880000D01*
X100450000Y-94120000D02*
X101650000Y-94120000D01*
D14*
X124500000Y-138200000D02*
X134500000Y-138200000D01*
X124500000Y-133800000D02*
X134500000Y-133800000D01*
X124500000Y-139200000D02*
X124500000Y-131800000D01*
X134500000Y-139200000D02*
X124500000Y-139200000D01*
X134500000Y-131800000D02*
X134500000Y-139200000D01*
X124500000Y-131800000D02*
X134500000Y-131800000D01*
D13*
X113120000Y-110650000D02*
X113120000Y-109450000D01*
X114880000Y-109450000D02*
X114880000Y-110650000D01*
X84120000Y-101600000D02*
X84120000Y-100400000D01*
X85880000Y-100400000D02*
X85880000Y-101600000D01*
X116930000Y-109450000D02*
X116930000Y-110650000D01*
X115170000Y-110650000D02*
X115170000Y-109450000D01*
X85880000Y-94400000D02*
X85880000Y-95600000D01*
X84120000Y-95600000D02*
X84120000Y-94400000D01*
X99880000Y-102450000D02*
X99880000Y-103650000D01*
X98120000Y-103650000D02*
X98120000Y-102450000D01*
X102880000Y-102450000D02*
X102880000Y-103650000D01*
X101120000Y-103650000D02*
X101120000Y-102450000D01*
X94120000Y-128650000D02*
X94120000Y-127450000D01*
X95880000Y-127450000D02*
X95880000Y-128650000D01*
X88120000Y-128650000D02*
X88120000Y-127450000D01*
X89880000Y-127450000D02*
X89880000Y-128650000D01*
X105880000Y-102450000D02*
X105880000Y-103650000D01*
X104120000Y-103650000D02*
X104120000Y-102450000D01*
D14*
X80500000Y-138200000D02*
X95500000Y-138200000D01*
X80500000Y-133800000D02*
X95500000Y-133800000D01*
X80500000Y-139200000D02*
X80500000Y-131800000D01*
X95500000Y-139200000D02*
X80500000Y-139200000D01*
X95500000Y-131800000D02*
X95500000Y-139200000D01*
X80500000Y-131800000D02*
X95500000Y-131800000D01*
D13*
X107000000Y-88340000D02*
X105200000Y-88340000D01*
X105200000Y-91560000D02*
X107650000Y-91560000D01*
D14*
X139600000Y-125300000D02*
X119400000Y-125300000D01*
X139600000Y-91300000D02*
X139600000Y-125300000D01*
X119400000Y-91300000D02*
X139600000Y-91300000D01*
X119400000Y-125300000D02*
X119400000Y-91300000D01*
X106675000Y-122875000D02*
X106950000Y-122875000D01*
X106675000Y-115125000D02*
X107030000Y-115125000D01*
X117325000Y-115125000D02*
X116970000Y-115125000D01*
X117325000Y-122875000D02*
X116970000Y-122875000D01*
X106675000Y-122875000D02*
X106675000Y-115125000D01*
X117325000Y-122875000D02*
X117325000Y-115125000D01*
X106950000Y-122875000D02*
X106950000Y-124400000D01*
X80500000Y-107750000D02*
X104500000Y-107750000D01*
X80500000Y-123750000D02*
X80500000Y-107750000D01*
X104500000Y-123750000D02*
X80500000Y-123750000D01*
X104500000Y-107750000D02*
X104500000Y-123750000D01*
X88075000Y-95500000D02*
X97575000Y-95500000D01*
X88075000Y-100500000D02*
X97575000Y-100500000D01*
X88075000Y-95500000D02*
X88075000Y-100500000D01*
X97575000Y-95500000D02*
X97575000Y-100500000D01*
X88075000Y-96500000D02*
X88575000Y-96500000D01*
X88575000Y-96500000D02*
X88575000Y-99500000D01*
X88075000Y-99500000D02*
X88575000Y-99500000D01*
X110333334Y-92857143D02*
X110285715Y-92904762D01*
X110142858Y-92952381D01*
X110047620Y-92952381D01*
X109904762Y-92904762D01*
X109809524Y-92809524D01*
X109761905Y-92714286D01*
X109714286Y-92523810D01*
X109714286Y-92380952D01*
X109761905Y-92190476D01*
X109809524Y-92095238D01*
X109904762Y-92000000D01*
X110047620Y-91952381D01*
X110142858Y-91952381D01*
X110285715Y-92000000D01*
X110333334Y-92047619D01*
X111285715Y-92952381D02*
X110714286Y-92952381D01*
X111000000Y-92952381D02*
X111000000Y-91952381D01*
X110904762Y-92095238D01*
X110809524Y-92190476D01*
X110714286Y-92238095D01*
X97833334Y-89357143D02*
X97785715Y-89404762D01*
X97642858Y-89452381D01*
X97547620Y-89452381D01*
X97404762Y-89404762D01*
X97309524Y-89309524D01*
X97261905Y-89214286D01*
X97214286Y-89023810D01*
X97214286Y-88880952D01*
X97261905Y-88690476D01*
X97309524Y-88595238D01*
X97404762Y-88500000D01*
X97547620Y-88452381D01*
X97642858Y-88452381D01*
X97785715Y-88500000D01*
X97833334Y-88547619D01*
X98214286Y-88547619D02*
X98261905Y-88500000D01*
X98357143Y-88452381D01*
X98595239Y-88452381D01*
X98690477Y-88500000D01*
X98738096Y-88547619D01*
X98785715Y-88642857D01*
X98785715Y-88738095D01*
X98738096Y-88880952D01*
X98166667Y-89452381D01*
X98785715Y-89452381D01*
X97833334Y-92357143D02*
X97785715Y-92404762D01*
X97642858Y-92452381D01*
X97547620Y-92452381D01*
X97404762Y-92404762D01*
X97309524Y-92309524D01*
X97261905Y-92214286D01*
X97214286Y-92023810D01*
X97214286Y-91880952D01*
X97261905Y-91690476D01*
X97309524Y-91595238D01*
X97404762Y-91500000D01*
X97547620Y-91452381D01*
X97642858Y-91452381D01*
X97785715Y-91500000D01*
X97833334Y-91547619D01*
X98166667Y-91452381D02*
X98785715Y-91452381D01*
X98452381Y-91833333D01*
X98595239Y-91833333D01*
X98690477Y-91880952D01*
X98738096Y-91928571D01*
X98785715Y-92023810D01*
X98785715Y-92261905D01*
X98738096Y-92357143D01*
X98690477Y-92404762D01*
X98595239Y-92452381D01*
X98309524Y-92452381D01*
X98214286Y-92404762D01*
X98166667Y-92357143D01*
X106833334Y-106857143D02*
X106785715Y-106904762D01*
X106642858Y-106952381D01*
X106547620Y-106952381D01*
X106404762Y-106904762D01*
X106309524Y-106809524D01*
X106261905Y-106714286D01*
X106214286Y-106523810D01*
X106214286Y-106380952D01*
X106261905Y-106190476D01*
X106309524Y-106095238D01*
X106404762Y-106000000D01*
X106547620Y-105952381D01*
X106642858Y-105952381D01*
X106785715Y-106000000D01*
X106833334Y-106047619D01*
X107690477Y-105952381D02*
X107500000Y-105952381D01*
X107404762Y-106000000D01*
X107357143Y-106047619D01*
X107261905Y-106190476D01*
X107214286Y-106380952D01*
X107214286Y-106761905D01*
X107261905Y-106857143D01*
X107309524Y-106904762D01*
X107404762Y-106952381D01*
X107595239Y-106952381D01*
X107690477Y-106904762D01*
X107738096Y-106857143D01*
X107785715Y-106761905D01*
X107785715Y-106523810D01*
X107738096Y-106428571D01*
X107690477Y-106380952D01*
X107595239Y-106333333D01*
X107404762Y-106333333D01*
X107309524Y-106380952D01*
X107261905Y-106428571D01*
X107214286Y-106523810D01*
X91833334Y-125857143D02*
X91785715Y-125904762D01*
X91642858Y-125952381D01*
X91547620Y-125952381D01*
X91404762Y-125904762D01*
X91309524Y-125809524D01*
X91261905Y-125714286D01*
X91214286Y-125523810D01*
X91214286Y-125380952D01*
X91261905Y-125190476D01*
X91309524Y-125095238D01*
X91404762Y-125000000D01*
X91547620Y-124952381D01*
X91642858Y-124952381D01*
X91785715Y-125000000D01*
X91833334Y-125047619D01*
X92166667Y-124952381D02*
X92833334Y-124952381D01*
X92404762Y-125952381D01*
X108833334Y-106857143D02*
X108785715Y-106904762D01*
X108642858Y-106952381D01*
X108547620Y-106952381D01*
X108404762Y-106904762D01*
X108309524Y-106809524D01*
X108261905Y-106714286D01*
X108214286Y-106523810D01*
X108214286Y-106380952D01*
X108261905Y-106190476D01*
X108309524Y-106095238D01*
X108404762Y-106000000D01*
X108547620Y-105952381D01*
X108642858Y-105952381D01*
X108785715Y-106000000D01*
X108833334Y-106047619D01*
X109690477Y-106285714D02*
X109690477Y-106952381D01*
X109452381Y-105904762D02*
X109214286Y-106619048D01*
X109833334Y-106619048D01*
X110833334Y-106857143D02*
X110785715Y-106904762D01*
X110642858Y-106952381D01*
X110547620Y-106952381D01*
X110404762Y-106904762D01*
X110309524Y-106809524D01*
X110261905Y-106714286D01*
X110214286Y-106523810D01*
X110214286Y-106380952D01*
X110261905Y-106190476D01*
X110309524Y-106095238D01*
X110404762Y-106000000D01*
X110547620Y-105952381D01*
X110642858Y-105952381D01*
X110785715Y-106000000D01*
X110833334Y-106047619D01*
X111738096Y-105952381D02*
X111261905Y-105952381D01*
X111214286Y-106428571D01*
X111261905Y-106380952D01*
X111357143Y-106333333D01*
X111595239Y-106333333D01*
X111690477Y-106380952D01*
X111738096Y-106428571D01*
X111785715Y-106523810D01*
X111785715Y-106761905D01*
X111738096Y-106857143D01*
X111690477Y-106904762D01*
X111595239Y-106952381D01*
X111357143Y-106952381D01*
X111261905Y-106904762D01*
X111214286Y-106857143D01*
X113261905Y-92952381D02*
X113261905Y-91952381D01*
X113500000Y-91952381D01*
X113642858Y-92000000D01*
X113738096Y-92095238D01*
X113785715Y-92190476D01*
X113833334Y-92380952D01*
X113833334Y-92523810D01*
X113785715Y-92714286D01*
X113738096Y-92809524D01*
X113642858Y-92904762D01*
X113500000Y-92952381D01*
X113261905Y-92952381D01*
X114166667Y-91952381D02*
X114785715Y-91952381D01*
X114452381Y-92333333D01*
X114595239Y-92333333D01*
X114690477Y-92380952D01*
X114738096Y-92428571D01*
X114785715Y-92523810D01*
X114785715Y-92761905D01*
X114738096Y-92857143D01*
X114690477Y-92904762D01*
X114595239Y-92952381D01*
X114309524Y-92952381D01*
X114214286Y-92904762D01*
X114166667Y-92857143D01*
X81261905Y-104452381D02*
X81261905Y-103452381D01*
X81500000Y-103452381D01*
X81642858Y-103500000D01*
X81738096Y-103595238D01*
X81785715Y-103690476D01*
X81833334Y-103880952D01*
X81833334Y-104023810D01*
X81785715Y-104214286D01*
X81738096Y-104309524D01*
X81642858Y-104404762D01*
X81500000Y-104452381D01*
X81261905Y-104452381D01*
X82785715Y-104452381D02*
X82214286Y-104452381D01*
X82500000Y-104452381D02*
X82500000Y-103452381D01*
X82404762Y-103595238D01*
X82309524Y-103690476D01*
X82214286Y-103738095D01*
X81261905Y-92452381D02*
X81261905Y-91452381D01*
X81500000Y-91452381D01*
X81642858Y-91500000D01*
X81738096Y-91595238D01*
X81785715Y-91690476D01*
X81833334Y-91880952D01*
X81833334Y-92023810D01*
X81785715Y-92214286D01*
X81738096Y-92309524D01*
X81642858Y-92404762D01*
X81500000Y-92452381D01*
X81261905Y-92452381D01*
X82214286Y-91547619D02*
X82261905Y-91500000D01*
X82357143Y-91452381D01*
X82595239Y-91452381D01*
X82690477Y-91500000D01*
X82738096Y-91547619D01*
X82785715Y-91642857D01*
X82785715Y-91738095D01*
X82738096Y-91880952D01*
X82166667Y-92452381D01*
X82785715Y-92452381D01*
X108738095Y-135452381D02*
X108738095Y-134452381D01*
X108976190Y-134452381D01*
X109119048Y-134500000D01*
X109214286Y-134595238D01*
X109261905Y-134690476D01*
X109309524Y-134880952D01*
X109309524Y-135023810D01*
X109261905Y-135214286D01*
X109214286Y-135309524D01*
X109119048Y-135404762D01*
X108976190Y-135452381D01*
X108738095Y-135452381D01*
X109928571Y-134452381D02*
X110119048Y-134452381D01*
X110214286Y-134500000D01*
X110309524Y-134595238D01*
X110357143Y-134785714D01*
X110357143Y-135119048D01*
X110309524Y-135309524D01*
X110214286Y-135404762D01*
X110119048Y-135452381D01*
X109928571Y-135452381D01*
X109833333Y-135404762D01*
X109738095Y-135309524D01*
X109690476Y-135119048D01*
X109690476Y-134785714D01*
X109738095Y-134595238D01*
X109833333Y-134500000D01*
X109928571Y-134452381D01*
X111309524Y-135452381D02*
X110738095Y-135452381D01*
X111023809Y-135452381D02*
X111023809Y-134452381D01*
X110928571Y-134595238D01*
X110833333Y-134690476D01*
X110738095Y-134738095D01*
X108642619Y-98452381D02*
X108642619Y-97452381D01*
X109071190Y-97547619D02*
X109118809Y-97500000D01*
X109214047Y-97452381D01*
X109452143Y-97452381D01*
X109547381Y-97500000D01*
X109595000Y-97547619D01*
X109642619Y-97642857D01*
X109642619Y-97738095D01*
X109595000Y-97880952D01*
X109023571Y-98452381D01*
X109642619Y-98452381D01*
X110642619Y-98357143D02*
X110595000Y-98404762D01*
X110452143Y-98452381D01*
X110356905Y-98452381D01*
X110214047Y-98404762D01*
X110118809Y-98309524D01*
X110071190Y-98214286D01*
X110023571Y-98023810D01*
X110023571Y-97880952D01*
X110071190Y-97690476D01*
X110118809Y-97595238D01*
X110214047Y-97500000D01*
X110356905Y-97452381D01*
X110452143Y-97452381D01*
X110595000Y-97500000D01*
X110642619Y-97547619D01*
X111595000Y-98452381D02*
X111023571Y-98452381D01*
X111309285Y-98452381D02*
X111309285Y-97452381D01*
X111214047Y-97595238D01*
X111118809Y-97690476D01*
X111023571Y-97738095D01*
X100833334Y-97452381D02*
X100357143Y-97452381D01*
X100357143Y-96452381D01*
X101690477Y-97452381D02*
X101119048Y-97452381D01*
X101404762Y-97452381D02*
X101404762Y-96452381D01*
X101309524Y-96595238D01*
X101214286Y-96690476D01*
X101119048Y-96738095D01*
X125023810Y-133452381D02*
X125023810Y-132452381D01*
X125357144Y-133166667D01*
X125690477Y-132452381D01*
X125690477Y-133452381D01*
X126119048Y-133166667D02*
X126595239Y-133166667D01*
X126023810Y-133452381D02*
X126357143Y-132452381D01*
X126690477Y-133452381D01*
X127023810Y-133452381D02*
X127023810Y-132452381D01*
X127500000Y-133452381D02*
X127500000Y-132452381D01*
X128071429Y-133452381D01*
X128071429Y-132452381D01*
X128500000Y-133404762D02*
X128642857Y-133452381D01*
X128880953Y-133452381D01*
X128976191Y-133404762D01*
X129023810Y-133357143D01*
X129071429Y-133261905D01*
X129071429Y-133166667D01*
X129023810Y-133071429D01*
X128976191Y-133023810D01*
X128880953Y-132976190D01*
X128690476Y-132928571D01*
X128595238Y-132880952D01*
X128547619Y-132833333D01*
X128500000Y-132738095D01*
X128500000Y-132642857D01*
X128547619Y-132547619D01*
X128595238Y-132500000D01*
X128690476Y-132452381D01*
X128928572Y-132452381D01*
X129071429Y-132500000D01*
X130023810Y-133452381D02*
X129452381Y-133452381D01*
X129738095Y-133452381D02*
X129738095Y-132452381D01*
X129642857Y-132595238D01*
X129547619Y-132690476D01*
X129452381Y-132738095D01*
X113833334Y-106952381D02*
X113500000Y-106476190D01*
X113261905Y-106952381D02*
X113261905Y-105952381D01*
X113642858Y-105952381D01*
X113738096Y-106000000D01*
X113785715Y-106047619D01*
X113833334Y-106142857D01*
X113833334Y-106285714D01*
X113785715Y-106380952D01*
X113738096Y-106428571D01*
X113642858Y-106476190D01*
X113261905Y-106476190D01*
X114785715Y-106952381D02*
X114214286Y-106952381D01*
X114500000Y-106952381D02*
X114500000Y-105952381D01*
X114404762Y-106095238D01*
X114309524Y-106190476D01*
X114214286Y-106238095D01*
X84833334Y-104452381D02*
X84500000Y-103976190D01*
X84261905Y-104452381D02*
X84261905Y-103452381D01*
X84642858Y-103452381D01*
X84738096Y-103500000D01*
X84785715Y-103547619D01*
X84833334Y-103642857D01*
X84833334Y-103785714D01*
X84785715Y-103880952D01*
X84738096Y-103928571D01*
X84642858Y-103976190D01*
X84261905Y-103976190D01*
X85166667Y-103452381D02*
X85785715Y-103452381D01*
X85452381Y-103833333D01*
X85595239Y-103833333D01*
X85690477Y-103880952D01*
X85738096Y-103928571D01*
X85785715Y-104023810D01*
X85785715Y-104261905D01*
X85738096Y-104357143D01*
X85690477Y-104404762D01*
X85595239Y-104452381D01*
X85309524Y-104452381D01*
X85214286Y-104404762D01*
X85166667Y-104357143D01*
X115833334Y-106952381D02*
X115500000Y-106476190D01*
X115261905Y-106952381D02*
X115261905Y-105952381D01*
X115642858Y-105952381D01*
X115738096Y-106000000D01*
X115785715Y-106047619D01*
X115833334Y-106142857D01*
X115833334Y-106285714D01*
X115785715Y-106380952D01*
X115738096Y-106428571D01*
X115642858Y-106476190D01*
X115261905Y-106476190D01*
X116214286Y-106047619D02*
X116261905Y-106000000D01*
X116357143Y-105952381D01*
X116595239Y-105952381D01*
X116690477Y-106000000D01*
X116738096Y-106047619D01*
X116785715Y-106142857D01*
X116785715Y-106238095D01*
X116738096Y-106380952D01*
X116166667Y-106952381D01*
X116785715Y-106952381D01*
X84833334Y-92452381D02*
X84500000Y-91976190D01*
X84261905Y-92452381D02*
X84261905Y-91452381D01*
X84642858Y-91452381D01*
X84738096Y-91500000D01*
X84785715Y-91547619D01*
X84833334Y-91642857D01*
X84833334Y-91785714D01*
X84785715Y-91880952D01*
X84738096Y-91928571D01*
X84642858Y-91976190D01*
X84261905Y-91976190D01*
X85690477Y-91785714D02*
X85690477Y-92452381D01*
X85452381Y-91404762D02*
X85214286Y-92119048D01*
X85833334Y-92119048D01*
X98833334Y-100952381D02*
X98500000Y-100476190D01*
X98261905Y-100952381D02*
X98261905Y-99952381D01*
X98642858Y-99952381D01*
X98738096Y-100000000D01*
X98785715Y-100047619D01*
X98833334Y-100142857D01*
X98833334Y-100285714D01*
X98785715Y-100380952D01*
X98738096Y-100428571D01*
X98642858Y-100476190D01*
X98261905Y-100476190D01*
X99738096Y-99952381D02*
X99261905Y-99952381D01*
X99214286Y-100428571D01*
X99261905Y-100380952D01*
X99357143Y-100333333D01*
X99595239Y-100333333D01*
X99690477Y-100380952D01*
X99738096Y-100428571D01*
X99785715Y-100523810D01*
X99785715Y-100761905D01*
X99738096Y-100857143D01*
X99690477Y-100904762D01*
X99595239Y-100952381D01*
X99357143Y-100952381D01*
X99261905Y-100904762D01*
X99214286Y-100857143D01*
X101833334Y-100952381D02*
X101500000Y-100476190D01*
X101261905Y-100952381D02*
X101261905Y-99952381D01*
X101642858Y-99952381D01*
X101738096Y-100000000D01*
X101785715Y-100047619D01*
X101833334Y-100142857D01*
X101833334Y-100285714D01*
X101785715Y-100380952D01*
X101738096Y-100428571D01*
X101642858Y-100476190D01*
X101261905Y-100476190D01*
X102690477Y-99952381D02*
X102500000Y-99952381D01*
X102404762Y-100000000D01*
X102357143Y-100047619D01*
X102261905Y-100190476D01*
X102214286Y-100380952D01*
X102214286Y-100761905D01*
X102261905Y-100857143D01*
X102309524Y-100904762D01*
X102404762Y-100952381D01*
X102595239Y-100952381D01*
X102690477Y-100904762D01*
X102738096Y-100857143D01*
X102785715Y-100761905D01*
X102785715Y-100523810D01*
X102738096Y-100428571D01*
X102690477Y-100380952D01*
X102595239Y-100333333D01*
X102404762Y-100333333D01*
X102309524Y-100380952D01*
X102261905Y-100428571D01*
X102214286Y-100523810D01*
X94833334Y-125952381D02*
X94500000Y-125476190D01*
X94261905Y-125952381D02*
X94261905Y-124952381D01*
X94642858Y-124952381D01*
X94738096Y-125000000D01*
X94785715Y-125047619D01*
X94833334Y-125142857D01*
X94833334Y-125285714D01*
X94785715Y-125380952D01*
X94738096Y-125428571D01*
X94642858Y-125476190D01*
X94261905Y-125476190D01*
X95166667Y-124952381D02*
X95833334Y-124952381D01*
X95404762Y-125952381D01*
X88833334Y-125952381D02*
X88500000Y-125476190D01*
X88261905Y-125952381D02*
X88261905Y-124952381D01*
X88642858Y-124952381D01*
X88738096Y-125000000D01*
X88785715Y-125047619D01*
X88833334Y-125142857D01*
X88833334Y-125285714D01*
X88785715Y-125380952D01*
X88738096Y-125428571D01*
X88642858Y-125476190D01*
X88261905Y-125476190D01*
X89404762Y-125380952D02*
X89309524Y-125333333D01*
X89261905Y-125285714D01*
X89214286Y-125190476D01*
X89214286Y-125142857D01*
X89261905Y-125047619D01*
X89309524Y-125000000D01*
X89404762Y-124952381D01*
X89595239Y-124952381D01*
X89690477Y-125000000D01*
X89738096Y-125047619D01*
X89785715Y-125142857D01*
X89785715Y-125190476D01*
X89738096Y-125285714D01*
X89690477Y-125333333D01*
X89595239Y-125380952D01*
X89404762Y-125380952D01*
X89309524Y-125428571D01*
X89261905Y-125476190D01*
X89214286Y-125571429D01*
X89214286Y-125761905D01*
X89261905Y-125857143D01*
X89309524Y-125904762D01*
X89404762Y-125952381D01*
X89595239Y-125952381D01*
X89690477Y-125904762D01*
X89738096Y-125857143D01*
X89785715Y-125761905D01*
X89785715Y-125571429D01*
X89738096Y-125476190D01*
X89690477Y-125428571D01*
X89595239Y-125380952D01*
X104833334Y-100952381D02*
X104500000Y-100476190D01*
X104261905Y-100952381D02*
X104261905Y-99952381D01*
X104642858Y-99952381D01*
X104738096Y-100000000D01*
X104785715Y-100047619D01*
X104833334Y-100142857D01*
X104833334Y-100285714D01*
X104785715Y-100380952D01*
X104738096Y-100428571D01*
X104642858Y-100476190D01*
X104261905Y-100476190D01*
X105309524Y-100952381D02*
X105500000Y-100952381D01*
X105595239Y-100904762D01*
X105642858Y-100857143D01*
X105738096Y-100714286D01*
X105785715Y-100523810D01*
X105785715Y-100142857D01*
X105738096Y-100047619D01*
X105690477Y-100000000D01*
X105595239Y-99952381D01*
X105404762Y-99952381D01*
X105309524Y-100000000D01*
X105261905Y-100047619D01*
X105214286Y-100142857D01*
X105214286Y-100380952D01*
X105261905Y-100476190D01*
X105309524Y-100523810D01*
X105404762Y-100571429D01*
X105595239Y-100571429D01*
X105690477Y-100523810D01*
X105738096Y-100476190D01*
X105785715Y-100380952D01*
X81761905Y-132452381D02*
X82333334Y-132452381D01*
X82047619Y-133452381D02*
X82047619Y-132452381D01*
X82619048Y-133404762D02*
X82761905Y-133452381D01*
X83000001Y-133452381D01*
X83095239Y-133404762D01*
X83142858Y-133357143D01*
X83190477Y-133261905D01*
X83190477Y-133166667D01*
X83142858Y-133071429D01*
X83095239Y-133023810D01*
X83000001Y-132976190D01*
X82809524Y-132928571D01*
X82714286Y-132880952D01*
X82666667Y-132833333D01*
X82619048Y-132738095D01*
X82619048Y-132642857D01*
X82666667Y-132547619D01*
X82714286Y-132500000D01*
X82809524Y-132452381D01*
X83047620Y-132452381D01*
X83190477Y-132500000D01*
X84142858Y-133452381D02*
X83571429Y-133452381D01*
X83857143Y-133452381D02*
X83857143Y-132452381D01*
X83761905Y-132595238D01*
X83666667Y-132690476D01*
X83571429Y-132738095D01*
X105238095Y-91952381D02*
X105238095Y-92761905D01*
X105285714Y-92857143D01*
X105333333Y-92904762D01*
X105428571Y-92952381D01*
X105619048Y-92952381D01*
X105714286Y-92904762D01*
X105761905Y-92857143D01*
X105809524Y-92761905D01*
X105809524Y-91952381D01*
X106238095Y-92047619D02*
X106285714Y-92000000D01*
X106380952Y-91952381D01*
X106619048Y-91952381D01*
X106714286Y-92000000D01*
X106761905Y-92047619D01*
X106809524Y-92142857D01*
X106809524Y-92238095D01*
X106761905Y-92380952D01*
X106190476Y-92952381D01*
X106809524Y-92952381D01*
X128738095Y-89452381D02*
X128738095Y-90261905D01*
X128785714Y-90357143D01*
X128833333Y-90404762D01*
X128928571Y-90452381D01*
X129119048Y-90452381D01*
X129214286Y-90404762D01*
X129261905Y-90357143D01*
X129309524Y-90261905D01*
X129309524Y-89452381D01*
X129690476Y-89452381D02*
X130309524Y-89452381D01*
X129976190Y-89833333D01*
X130119048Y-89833333D01*
X130214286Y-89880952D01*
X130261905Y-89928571D01*
X130309524Y-90023810D01*
X130309524Y-90261905D01*
X130261905Y-90357143D01*
X130214286Y-90404762D01*
X130119048Y-90452381D01*
X129833333Y-90452381D01*
X129738095Y-90404762D01*
X129690476Y-90357143D01*
X117952381Y-119761905D02*
X118761905Y-119761905D01*
X118857143Y-119714286D01*
X118904762Y-119666667D01*
X118952381Y-119571429D01*
X118952381Y-119380952D01*
X118904762Y-119285714D01*
X118857143Y-119238095D01*
X118761905Y-119190476D01*
X117952381Y-119190476D01*
X118952381Y-118190476D02*
X118952381Y-118761905D01*
X118952381Y-118476191D02*
X117952381Y-118476191D01*
X118095238Y-118571429D01*
X118190476Y-118666667D01*
X118238095Y-118761905D01*
X104952381Y-116261905D02*
X105761905Y-116261905D01*
X105857143Y-116214286D01*
X105904762Y-116166667D01*
X105952381Y-116071429D01*
X105952381Y-115880952D01*
X105904762Y-115785714D01*
X105857143Y-115738095D01*
X105761905Y-115690476D01*
X104952381Y-115690476D01*
X105285714Y-114785714D02*
X105952381Y-114785714D01*
X104904762Y-115023810D02*
X105619048Y-115261905D01*
X105619048Y-114642857D01*
X92190476Y-97452381D02*
X92857143Y-98452381D01*
X92857143Y-97452381D02*
X92190476Y-98452381D01*
X93761905Y-98452381D02*
X93190476Y-98452381D01*
X93476190Y-98452381D02*
X93476190Y-97452381D01*
X93380952Y-97595238D01*
X93285714Y-97690476D01*
X93190476Y-97738095D01*
M02*
