<?xml version="1.0" standalone="no"?>
 <!DOCTYPE svg PUBLIC "-//W3C//DTD SVG 1.1//EN" 
 "http://www.w3.org/Graphics/SVG/1.1/DTD/svg11.dtd"> 
<svg xmlns="http://www.w3.org/2000/svg" version="1.1" 
    width="29.7002cm" height="21.0007cm" viewBox="0 0 116930 82680 ">
<title>SVG Picture created as DO6TS1A-brd.svg date 2018/03/12 23:25:47 </title>
  <desc>Picture generated by PCBNEW </desc>
<g style="fill:#000000; fill-opacity:1;stroke:#000000; stroke-opacity:1;
stroke-linecap:round; stroke-linejoin:round; "
 transform="translate(0 0) scale(1 1)">
</g>
<g style="fill:#000000; fill-opacity:0.0; 
stroke:#000000; stroke-width:-0.000393701; stroke-opacity:1; 
stroke-linecap:round; stroke-linejoin:round;">
</g>
<g style="fill:#840084; fill-opacity:0.0; 
stroke:#840084; stroke-width:-0.000393701; stroke-opacity:1; 
stroke-linecap:round; stroke-linejoin:round;">
</g>
<g style="fill:#840084; fill-opacity:0.0; 
stroke:#840084; stroke-width:118.11; stroke-opacity:1; 
stroke-linecap:round; stroke-linejoin:round;">
<path d="M81004 47989
L81004 47708
" />
<path d="M81173 48045
L80582 47848
L81173 47651
" />
<path d="M81173 47201
L80582 47201
" />
<path d="M81145 47201
L81173 47258
L81173 47370
L81145 47426
L81117 47455
L81061 47483
L80892 47483
L80836 47455
L80807 47426
L80779 47370
L80779 47258
L80807 47201
" />
<path d="M81173 46667
L80582 46667
" />
<path d="M81145 46667
L81173 46723
L81173 46836
L81145 46892
L81117 46920
L81061 46948
L80892 46948
L80836 46920
L80807 46892
L80779 46836
L80779 46723
L80807 46667
" />
<path d="M81173 46386
L80779 46386
" />
<path d="M80892 46386
L80836 46358
L80807 46330
L80779 46273
L80779 46217
" />
<path d="M81145 45795
L81173 45852
L81173 45964
L81145 46020
L81089 46048
L80864 46048
L80807 46020
L80779 45964
L80779 45852
L80807 45795
L80864 45767
L80920 45767
L80976 46048
" />
<path d="M81145 45542
L81173 45486
L81173 45374
L81145 45317
L81089 45289
L81061 45289
L81004 45317
L80976 45374
L80976 45458
L80948 45514
L80892 45542
L80864 45542
L80807 45514
L80779 45458
L80779 45374
L80807 45317
" />
<path d="M81145 45064
L81173 45008
L81173 44895
L81145 44839
L81089 44811
L81061 44811
L81004 44839
L80976 44895
L80976 44980
L80948 45036
L80892 45064
L80864 45064
L80807 45036
L80779 44980
L80779 44895
L80807 44839
" />
<path d="M81117 44558
L81145 44530
L81173 44558
L81145 44586
L81117 44558
L81173 44558
" />
<path d="M80807 44558
L80836 44530
L80864 44558
L80836 44586
L80807 44558
L80864 44558
" />
</g>
<g style="fill:#840084; fill-opacity:0.0; 
stroke:#840084; stroke-width:3937.01; stroke-opacity:1; 
stroke-linecap:round; stroke-linejoin:round;">
<path d="M83268 47834
L83268 37598
" />
</g>
<g style="fill:#840084; fill-opacity:0.0; 
stroke:#840084; stroke-width:47.2441; stroke-opacity:1; 
stroke-linecap:round; stroke-linejoin:round;">
<path d="M66378 38929
L65906 38929
" />
<path d="M65906 38236
L66378 38236
" />
<path d="M67867 38366
L67867 38838
" />
<path d="M67174 38838
L67174 38366
" />
<path d="M63701 40905
L63701 41574
" />
<path d="M65040 39015
L65158 39015
" />
<path d="M65158 39015
L65158 40905
" />
<path d="M65158 40905
L65040 40905
" />
<path d="M63701 40905
L63583 40905
" />
<path d="M63583 40905
L63583 39015
" />
<path d="M63583 39015
L63701 39015
" />
<path d="M65544 45078
L65544 44291
" />
<path d="M64378 44291
L64378 45078
" />
<path d="M69233 38779
L69233 38385
" />
<path d="M68563 38385
L68563 38779
" />
<path d="M64764 43334
L63977 43334
" />
<path d="M63977 42492
L64764 42492
" />
</g>
<g style="fill:#840000; fill-opacity:0.0; 
stroke:#840000; stroke-width:47.2441; stroke-opacity:1; 
stroke-linecap:round; stroke-linejoin:round;">
</g>
<g style="fill:#840000; fill-opacity:0.0; 
stroke:#840000; stroke-width:59.0551; stroke-opacity:1; 
stroke-linecap:round; stroke-linejoin:round;">
<path d="M65692 39941
L65561 39754
" />
<path d="M65467 39941
L65467 39548
L65617 39548
L65655 39566
L65673 39585
L65692 39623
L65692 39679
L65673 39716
L65655 39735
L65617 39754
L65467 39754
" />
<path d="M66067 39941
L65842 39941
" />
<path d="M65955 39941
L65955 39548
L65917 39604
L65880 39641
L65842 39660
" />
<path d="M66442 39941
L66217 39941
" />
<path d="M66330 39941
L66330 39548
L66292 39604
L66255 39641
L66217 39660
" />
<path d="M67070 39941
L66939 39754
" />
<path d="M66845 39941
L66845 39548
L66995 39548
L67033 39566
L67051 39585
L67070 39623
L67070 39679
L67051 39716
L67033 39735
L66995 39754
L66845 39754
" />
<path d="M67445 39941
L67220 39941
" />
<path d="M67333 39941
L67333 39548
L67295 39604
L67258 39641
L67220 39660
" />
<path d="M67595 39585
L67614 39566
L67651 39548
L67745 39548
L67783 39566
L67801 39585
L67820 39623
L67820 39660
L67801 39716
L67576 39941
L67820 39941
" />
<path d="M62693 39745
L62693 40063
L62711 40101
L62730 40119
L62768 40138
L62843 40138
L62880 40119
L62899 40101
L62918 40063
L62918 39745
" />
<path d="M63292 39745
L63105 39745
L63086 39932
L63105 39913
L63142 39895
L63236 39895
L63274 39913
L63292 39932
L63311 39970
L63311 40063
L63292 40101
L63274 40119
L63236 40138
L63142 40138
L63105 40119
L63086 40101
" />
<path d="M63714 44825
L63696 44844
L63639 44863
L63602 44863
L63546 44844
L63508 44806
L63489 44769
L63471 44694
L63471 44638
L63489 44563
L63508 44525
L63546 44488
L63602 44469
L63639 44469
L63696 44488
L63714 44506
" />
<path d="M63939 44638
L63902 44619
L63883 44600
L63864 44563
L63864 44544
L63883 44506
L63902 44488
L63939 44469
L64014 44469
L64052 44488
L64070 44506
L64089 44544
L64089 44563
L64070 44600
L64052 44619
L64014 44638
L63939 44638
L63902 44656
L63883 44675
L63864 44713
L63864 44788
L63883 44825
L63902 44844
L63939 44863
L64014 44863
L64052 44844
L64070 44825
L64089 44788
L64089 44713
L64070 44675
L64052 44656
L64014 44638
" />
<path d="M68439 39904
L68420 39923
L68364 39941
L68326 39941
L68270 39923
L68232 39885
L68214 39848
L68195 39773
L68195 39716
L68214 39641
L68232 39604
L68270 39566
L68326 39548
L68364 39548
L68420 39566
L68439 39585
" />
<path d="M68626 39941
L68701 39941
L68739 39923
L68757 39904
L68795 39848
L68814 39773
L68814 39623
L68795 39585
L68776 39566
L68739 39548
L68664 39548
L68626 39566
L68607 39585
L68589 39623
L68589 39716
L68607 39754
L68626 39773
L68664 39791
L68739 39791
L68776 39773
L68795 39754
L68814 39716
" />
<path d="M62543 43091
L62411 42904
" />
<path d="M62318 43091
L62318 42697
L62468 42697
L62505 42716
L62524 42735
L62543 42772
L62543 42829
L62524 42866
L62505 42885
L62468 42904
L62318 42904
" />
<path d="M62918 43091
L62693 43091
" />
<path d="M62805 43091
L62805 42697
L62768 42754
L62730 42791
L62693 42810
" />
<path d="M63161 42697
L63199 42697
L63236 42716
L63255 42735
L63274 42772
L63292 42847
L63292 42941
L63274 43016
L63255 43053
L63236 43072
L63199 43091
L63161 43091
L63124 43072
L63105 43053
L63086 43016
L63067 42941
L63067 42847
L63086 42772
L63105 42735
L63124 42716
L63161 42697
" />
</g>
<g style="fill:#000000; fill-opacity:0.0; 
stroke:#000000; stroke-width:59.0551; stroke-opacity:1; 
stroke-linecap:round; stroke-linejoin:round;">
</g>
<g style="fill:#008400; fill-opacity:0.0; 
stroke:#008400; stroke-width:59.0551; stroke-opacity:1; 
stroke-linecap:round; stroke-linejoin:round;">
</g>
<g style="fill:#008400; fill-opacity:0.0; 
stroke:#008400; stroke-width:0; stroke-opacity:1; 
stroke-linecap:round; stroke-linejoin:round;">
</g>
<g style="fill:#008400; fill-opacity:1.0; 
stroke:#008400; stroke-width:0; stroke-opacity:1; 
stroke-linecap:round; stroke-linejoin:round;">
<polyline style="fill-rule:evenodd;"
points="65630,38326
65630,38838
65906,38838
65906,38326
65630,38326
" /> 
<polyline style="fill-rule:evenodd;"
points="66378,38326
66378,38838
66654,38838
66654,38326
66378,38326
" /> 
<polyline style="fill-rule:evenodd;"
points="67264,39114
67776,39114
67776,38838
67264,38838
67264,39114
" /> 
<polyline style="fill-rule:evenodd;"
points="67264,38366
67776,38366
67776,38090
67264,38090
67264,38366
" /> 
<polyline style="fill-rule:evenodd;"
points="63744,41594
63996,41594
63996,40807
63744,40807
63744,41594
" /> 
<polyline style="fill-rule:evenodd;"
points="64744,41594
64996,41594
64996,40807
64744,40807
64744,41594
" /> 
<polyline style="fill-rule:evenodd;"
points="64744,39114
64996,39114
64996,38326
64744,38326
64744,39114
" /> 
<polyline style="fill-rule:evenodd;"
points="63744,39114
63996,39114
63996,38326
63744,38326
63744,39114
" /> 
<polyline style="fill-rule:evenodd;"
points="65453,43897
64469,43897
64469,44291
65453,44291
65453,43897
" /> 
<polyline style="fill-rule:evenodd;"
points="65453,45078
64469,45078
64469,45472
65453,45472
65453,45078
" /> 
<polyline style="fill-rule:evenodd;"
points="69144,37992
68652,37992
68652,38385
69144,38385
69144,37992
" /> 
<polyline style="fill-rule:evenodd;"
points="69144,38779
68652,38779
68652,39173
69144,39173
69144,38779
" /> 
<polyline style="fill-rule:evenodd;"
points="63622,42578
63622,43248
63977,43248
63977,42578
63622,42578
" /> 
<polyline style="fill-rule:evenodd;"
points="64764,42578
64764,43248
65118,43248
65118,42578
64764,42578
" /> 
</g>
<g style="fill:#000000; fill-opacity:1.0; 
stroke:#000000; stroke-width:0; stroke-opacity:1; 
stroke-linecap:round; stroke-linejoin:round;">
</g>
<g style="fill:#840000; fill-opacity:1.0; 
stroke:#840000; stroke-width:0; stroke-opacity:1; 
stroke-linecap:round; stroke-linejoin:round;">
</g>
<g style="fill:#840000; fill-opacity:1.0; 
stroke:#840000; stroke-width:984.252; stroke-opacity:1; 
stroke-linecap:round; stroke-linejoin:round;">
</g>
<g style="fill:#840000; fill-opacity:0.0; 
stroke:#840000; stroke-width:984.252; stroke-opacity:1; 
stroke-linecap:round; stroke-linejoin:round;">
<path d="M65945 53444
L65945 53641
" />
<path d="M63977 53444
L63977 53641
" />
<path d="M84252 53444
L84252 53641
" />
<path d="M82284 53444
L82284 53641
" />
<path d="M80315 53444
L80315 53641
" />
</g>
<g style="fill:#840000; fill-opacity:0.0; 
stroke:#840000; stroke-width:0; stroke-opacity:1; 
stroke-linecap:round; stroke-linejoin:round;">
</g>
<g style="fill:#840000; fill-opacity:1.0; 
stroke:#840000; stroke-width:0; stroke-opacity:1; 
stroke-linecap:round; stroke-linejoin:round;">
<polyline style="fill-rule:evenodd;"
points="66536,48818
67323,48818
67323,48031
66536,48031
66536,48818
" /> 
<polyline style="fill-rule:evenodd;"
points="64567,48818
65355,48818
65355,48031
64567,48031
64567,48818
" /> 
<polyline style="fill-rule:evenodd;"
points="68583,37244
69370,37244
69370,36456
68583,36456
68583,37244
" /> 
<polyline style="fill-rule:evenodd;"
points="62520,37244
63307,37244
63307,36456
62520,36456
62520,37244
" /> 
</g>
<g style="fill:#008400; fill-opacity:1.0; 
stroke:#008400; stroke-width:0; stroke-opacity:1; 
stroke-linecap:round; stroke-linejoin:round;">
<polyline style="fill-rule:evenodd;"
points="65630,38326
65630,38838
65906,38838
65906,38326
65630,38326
" /> 
<polyline style="fill-rule:evenodd;"
points="66378,38326
66378,38838
66654,38838
66654,38326
66378,38326
" /> 
<polyline style="fill-rule:evenodd;"
points="67264,39114
67776,39114
67776,38838
67264,38838
67264,39114
" /> 
<polyline style="fill-rule:evenodd;"
points="67264,38366
67776,38366
67776,38090
67264,38090
67264,38366
" /> 
</g>
<g style="fill:#840000; fill-opacity:1.0; 
stroke:#840000; stroke-width:0; stroke-opacity:1; 
stroke-linecap:round; stroke-linejoin:round;">
</g>
<g style="fill:#840000; fill-opacity:1.0; 
stroke:#840000; stroke-width:984.252; stroke-opacity:1; 
stroke-linecap:round; stroke-linejoin:round;">
</g>
<g style="fill:#840000; fill-opacity:0.0; 
stroke:#840000; stroke-width:984.252; stroke-opacity:1; 
stroke-linecap:round; stroke-linejoin:round;">
<path d="M69882 53444
L69882 53641
" />
<path d="M67914 53444
L67914 53641
" />
</g>
<g style="fill:#008400; fill-opacity:0.0; 
stroke:#008400; stroke-width:984.252; stroke-opacity:1; 
stroke-linecap:round; stroke-linejoin:round;">
</g>
<g style="fill:#008400; fill-opacity:0.0; 
stroke:#008400; stroke-width:0; stroke-opacity:1; 
stroke-linecap:round; stroke-linejoin:round;">
</g>
<g style="fill:#008400; fill-opacity:1.0; 
stroke:#008400; stroke-width:0; stroke-opacity:1; 
stroke-linecap:round; stroke-linejoin:round;">
<polyline style="fill-rule:evenodd;"
points="63744,41594
63996,41594
63996,40807
63744,40807
63744,41594
" /> 
<polyline style="fill-rule:evenodd;"
points="64744,41594
64996,41594
64996,40807
64744,40807
64744,41594
" /> 
<polyline style="fill-rule:evenodd;"
points="64744,39114
64996,39114
64996,38326
64744,38326
64744,39114
" /> 
<polyline style="fill-rule:evenodd;"
points="63744,39114
63996,39114
63996,38326
63744,38326
63744,39114
" /> 
<polyline style="fill-rule:evenodd;"
points="65453,43897
64469,43897
64469,44291
65453,44291
65453,43897
" /> 
<polyline style="fill-rule:evenodd;"
points="65453,45078
64469,45078
64469,45472
65453,45472
65453,45078
" /> 
<polyline style="fill-rule:evenodd;"
points="69144,37992
68652,37992
68652,38385
69144,38385
69144,37992
" /> 
<polyline style="fill-rule:evenodd;"
points="69144,38779
68652,38779
68652,39173
69144,39173
69144,38779
" /> 
<polyline style="fill-rule:evenodd;"
points="63622,42578
63622,43248
63977,43248
63977,42578
63622,42578
" /> 
<polyline style="fill-rule:evenodd;"
points="64764,42578
64764,43248
65118,43248
65118,42578
64764,42578
" /> 
</g>
<g style="fill:#000000; fill-opacity:1.0; 
stroke:#000000; stroke-width:0; stroke-opacity:1; 
stroke-linecap:round; stroke-linejoin:round;">
</g>
<g style="fill:#840000; fill-opacity:1.0; 
stroke:#840000; stroke-width:0; stroke-opacity:1; 
stroke-linecap:round; stroke-linejoin:round;">
<polyline style="fill-rule:evenodd;"
points="73868,34842
73376,34842
73376,35236
73868,35236
73868,34842
" /> 
<polyline style="fill-rule:evenodd;"
points="73868,35629
73376,35629
73376,36023
73868,36023
73868,35629
" /> 
<polyline style="fill-rule:evenodd;"
points="76575,34793
76575,35285
76969,35285
76969,34793
76575,34793
" /> 
<polyline style="fill-rule:evenodd;"
points="77363,34793
77363,35285
77756,35285
77756,34793
77363,34793
" /> 
<polyline style="fill-rule:evenodd;"
points="76575,35974
76575,36466
76969,36466
76969,35974
76575,35974
" /> 
<polyline style="fill-rule:evenodd;"
points="77363,35974
77363,36466
77756,36466
77756,35974
77363,35974
" /> 
<polyline style="fill-rule:evenodd;"
points="74557,43897
75050,43897
75050,43503
74557,43503
74557,43897
" /> 
<polyline style="fill-rule:evenodd;"
points="74557,43110
75050,43110
75050,42716
74557,42716
74557,43110
" /> 
<polyline style="fill-rule:evenodd;"
points="80463,50984
80955,50984
80955,50590
80463,50590
80463,50984
" /> 
<polyline style="fill-rule:evenodd;"
points="80463,50196
80955,50196
80955,49803
80463,49803
80463,50196
" /> 
<polyline style="fill-rule:evenodd;"
points="73770,43897
74262,43897
74262,43503
73770,43503
73770,43897
" /> 
<polyline style="fill-rule:evenodd;"
points="73770,43110
74262,43110
74262,42716
73770,42716
73770,43110
" /> 
<polyline style="fill-rule:evenodd;"
points="72983,43897
73475,43897
73475,43503
72983,43503
72983,43897
" /> 
<polyline style="fill-rule:evenodd;"
points="72983,43110
73475,43110
73475,42716
72983,42716
72983,43110
" /> 
<polyline style="fill-rule:evenodd;"
points="76752,38208
76437,38208
76437,38562
76752,38562
76752,38208
" /> 
<polyline style="fill-rule:evenodd;"
points="77500,38208
77185,38208
77185,38562
77500,38562
77500,38208
" /> 
<polyline style="fill-rule:evenodd;"
points="77126,38996
76811,38996
76811,39350
77126,39350
77126,38996
" /> 
<polyline style="fill-rule:evenodd;"
points="84882,39094
84410,39094
84410,39566
84882,39566
84882,39094
" /> 
<polyline style="fill-rule:evenodd;"
points="84882,39960
84410,39960
84410,40433
84882,40433
84882,39960
" /> 
<polyline style="fill-rule:evenodd;"
points="84410,38031
84882,38031
84882,37559
84410,37559
84410,38031
" /> 
<polyline style="fill-rule:evenodd;"
points="84410,37165
84882,37165
84882,36692
84410,36692
84410,37165
" /> 
<polyline style="fill-rule:evenodd;"
points="78205,52854
78205,51673
77615,51673
77615,52854
78205,52854
" /> 
<polyline style="fill-rule:evenodd;"
points="77705,54625
77705,53444
77115,53444
77115,54625
77705,54625
" /> 
<polyline style="fill-rule:evenodd;"
points="77205,52854
77205,51673
76615,51673
76615,52854
77205,52854
" /> 
<polyline style="fill-rule:evenodd;"
points="76705,54625
76705,53444
76115,53444
76115,54625
76705,54625
" /> 
<polyline style="fill-rule:evenodd;"
points="76205,52854
76205,51673
75615,51673
75615,52854
76205,52854
" /> 
<polyline style="fill-rule:evenodd;"
points="75705,54625
75705,53444
75115,53444
75115,54625
75705,54625
" /> 
<polyline style="fill-rule:evenodd;"
points="75205,52854
75205,51673
74615,51673
74615,52854
75205,52854
" /> 
<polyline style="fill-rule:evenodd;"
points="74705,54625
74705,53444
74115,53444
74115,54625
74705,54625
" /> 
<polyline style="fill-rule:evenodd;"
points="74205,52854
74205,51673
73615,51673
73615,52854
74205,52854
" /> 
<polyline style="fill-rule:evenodd;"
points="73705,54625
73705,53444
73115,53444
73115,54625
73705,54625
" /> 
<polyline style="fill-rule:evenodd;"
points="73205,52854
73205,51673
72615,51673
72615,52854
73205,52854
" /> 
<polyline style="fill-rule:evenodd;"
points="72705,54625
72705,53444
72115,53444
72115,54625
72705,54625
" /> 
<polyline style="fill-rule:evenodd;"
points="74630,38287
74630,37106
74040,37106
74040,38287
74630,38287
" /> 
<polyline style="fill-rule:evenodd;"
points="74130,40059
74130,38877
73540,38877
73540,40059
74130,40059
" /> 
<polyline style="fill-rule:evenodd;"
points="73630,38287
73630,37106
73040,37106
73040,38287
73630,38287
" /> 
<polyline style="fill-rule:evenodd;"
points="73130,40059
73130,38877
72540,38877
72540,40059
73130,40059
" /> 
<polyline style="fill-rule:evenodd;"
points="77658,37657
77658,37145
77382,37145
77382,37657
77658,37657
" /> 
<polyline style="fill-rule:evenodd;"
points="76910,37657
76910,37145
76634,37145
76634,37657
76910,37657
" /> 
</g>
<g style="fill:#840000; fill-opacity:1.0; 
stroke:#840000; stroke-width:984.252; stroke-opacity:1; 
stroke-linecap:round; stroke-linejoin:round;">
</g>
<g style="fill:#840000; fill-opacity:0.0; 
stroke:#840000; stroke-width:984.252; stroke-opacity:1; 
stroke-linecap:round; stroke-linejoin:round;">
<path d="M65945 53444
L65945 53641
" />
<path d="M63977 53444
L63977 53641
" />
</g>
<g style="fill:#840000; fill-opacity:0.0; 
stroke:#840000; stroke-width:0; stroke-opacity:1; 
stroke-linecap:round; stroke-linejoin:round;">
</g>
<g style="fill:#840000; fill-opacity:1.0; 
stroke:#840000; stroke-width:0; stroke-opacity:1; 
stroke-linecap:round; stroke-linejoin:round;">
<polyline style="fill-rule:evenodd;"
points="72304,42814
71792,42814
71792,43090
72304,43090
72304,42814
" /> 
<polyline style="fill-rule:evenodd;"
points="72304,43562
71792,43562
71792,43838
72304,43838
72304,43562
" /> 
<polyline style="fill-rule:evenodd;"
points="83721,39251
83209,39251
83209,39527
83721,39527
83721,39251
" /> 
<polyline style="fill-rule:evenodd;"
points="83721,40000
83209,40000
83209,40275
83721,40275
83721,40000
" /> 
<polyline style="fill-rule:evenodd;"
points="70985,43838
71496,43838
71496,43562
70985,43562
70985,43838
" /> 
<polyline style="fill-rule:evenodd;"
points="70985,43090
71496,43090
71496,42814
70985,42814
70985,43090
" /> 
<polyline style="fill-rule:evenodd;"
points="83209,37913
83721,37913
83721,37637
83209,37637
83209,37913
" /> 
<polyline style="fill-rule:evenodd;"
points="83209,37165
83721,37165
83721,36889
83209,36889
83209,37165
" /> 
<polyline style="fill-rule:evenodd;"
points="77697,41082
78209,41082
78209,40807
77697,40807
77697,41082
" /> 
<polyline style="fill-rule:evenodd;"
points="77697,40334
78209,40334
78209,40059
77697,40059
77697,40334
" /> 
<polyline style="fill-rule:evenodd;"
points="76516,41082
77028,41082
77028,40807
76516,40807
76516,41082
" /> 
<polyline style="fill-rule:evenodd;"
points="76516,40334
77028,40334
77028,40059
76516,40059
76516,40334
" /> 
<polyline style="fill-rule:evenodd;"
points="79784,49901
79272,49901
79272,50177
79784,50177
79784,49901
" /> 
<polyline style="fill-rule:evenodd;"
points="79784,50649
79272,50649
79272,50925
79784,50925
79784,50649
" /> 
<polyline style="fill-rule:evenodd;"
points="82146,49901
81634,49901
81634,50177
82146,50177
82146,49901
" /> 
<polyline style="fill-rule:evenodd;"
points="82146,50649
81634,50649
81634,50925
82146,50925
82146,50649
" /> 
<polyline style="fill-rule:evenodd;"
points="75335,41082
75847,41082
75847,40807
75335,40807
75335,41082
" /> 
<polyline style="fill-rule:evenodd;"
points="75335,40334
75847,40334
75847,40059
75335,40059
75335,40334
" /> 
</g>
<g style="fill:#840000; fill-opacity:1.0; 
stroke:#840000; stroke-width:984.252; stroke-opacity:1; 
stroke-linecap:round; stroke-linejoin:round;">
</g>
<g style="fill:#840000; fill-opacity:0.0; 
stroke:#840000; stroke-width:984.252; stroke-opacity:1; 
stroke-linecap:round; stroke-linejoin:round;">
<path d="M84252 53444
L84252 53641
" />
<path d="M82284 53444
L82284 53641
" />
<path d="M80315 53444
L80315 53641
" />
</g>
<g style="fill:#840000; fill-opacity:0.0; 
stroke:#840000; stroke-width:0; stroke-opacity:1; 
stroke-linecap:round; stroke-linejoin:round;">
</g>
<g style="fill:#840000; fill-opacity:1.0; 
stroke:#840000; stroke-width:0; stroke-opacity:1; 
stroke-linecap:round; stroke-linejoin:round;">
<polyline style="fill-rule:evenodd;"
points="74516,35659
74516,35915
74933,35915
74933,35659
74516,35659
" /> 
<polyline style="fill-rule:evenodd;"
points="74516,35285
74516,35541
74933,35541
74933,35285
74516,35285
" /> 
<polyline style="fill-rule:evenodd;"
points="74516,34911
74516,35167
74933,35167
74933,34911
74516,34911
" /> 
<polyline style="fill-rule:evenodd;"
points="75382,34911
75382,35167
75800,35167
75800,34911
75382,34911
" /> 
<polyline style="fill-rule:evenodd;"
points="75382,35659
75382,35915
75800,35915
75800,35659
75382,35659
" /> 
<polyline style="fill-rule:evenodd;"
points="66536,48818
67323,48818
67323,48031
66536,48031
66536,48818
" /> 
<polyline style="fill-rule:evenodd;"
points="64567,48818
65355,48818
65355,48031
64567,48031
64567,48818
" /> 
<polyline style="fill-rule:evenodd;"
points="68583,37244
69370,37244
69370,36456
68583,36456
68583,37244
" /> 
<polyline style="fill-rule:evenodd;"
points="62520,37244
63307,37244
63307,36456
62520,36456
62520,37244
" /> 
<polyline style="fill-rule:evenodd;"
points="74467,48976
74703,48976
74703,48385
74467,48385
74467,48976
" /> 
<polyline style="fill-rule:evenodd;"
points="73967,48976
74203,48976
74203,48385
73967,48385
73967,48976
" /> 
<polyline style="fill-rule:evenodd;"
points="73467,48976
73703,48976
73703,48385
73467,48385
73467,48976
" /> 
<polyline style="fill-rule:evenodd;"
points="72967,48976
73203,48976
73203,48385
72967,48385
72967,48976
" /> 
<polyline style="fill-rule:evenodd;"
points="72467,48976
72703,48976
72703,48385
72467,48385
72467,48976
" /> 
<polyline style="fill-rule:evenodd;"
points="71967,48976
72203,48976
72203,48385
71967,48385
71967,48976
" /> 
<polyline style="fill-rule:evenodd;"
points="71467,48976
71703,48976
71703,48385
71467,48385
71467,48976
" /> 
<polyline style="fill-rule:evenodd;"
points="70967,48976
71203,48976
71203,48385
70967,48385
70967,48976
" /> 
<polyline style="fill-rule:evenodd;"
points="70967,45314
71203,45314
71203,44724
70967,44724
70967,45314
" /> 
<polyline style="fill-rule:evenodd;"
points="71467,45314
71703,45314
71703,44724
71467,44724
71467,45314
" /> 
<polyline style="fill-rule:evenodd;"
points="71967,45314
72203,45314
72203,44724
71967,44724
71967,45314
" /> 
<polyline style="fill-rule:evenodd;"
points="72467,45314
72703,45314
72703,44724
72467,44724
72467,45314
" /> 
<polyline style="fill-rule:evenodd;"
points="72967,45314
73203,45314
73203,44724
72967,44724
72967,45314
" /> 
<polyline style="fill-rule:evenodd;"
points="73467,45314
73703,45314
73703,44724
73467,44724
73467,45314
" /> 
<polyline style="fill-rule:evenodd;"
points="73967,45314
74203,45314
74203,44724
73967,44724
73967,45314
" /> 
<polyline style="fill-rule:evenodd;"
points="74467,45314
74703,45314
74703,44724
74467,44724
74467,45314
" /> 
<polyline style="fill-rule:evenodd;"
points="81693,49015
82087,49015
82087,48622
81693,48622
81693,49015
" /> 
<polyline style="fill-rule:evenodd;"
points="80906,49015
81300,49015
81300,48622
80906,48622
80906,49015
" /> 
<polyline style="fill-rule:evenodd;"
points="80118,49015
80512,49015
80512,48622
80118,48622
80118,49015
" /> 
<polyline style="fill-rule:evenodd;"
points="79331,49015
79725,49015
79725,48622
79331,48622
79331,49015
" /> 
<polyline style="fill-rule:evenodd;"
points="78544,49015
78937,49015
78937,48622
78544,48622
78544,49015
" /> 
<polyline style="fill-rule:evenodd;"
points="77756,49015
78150,49015
78150,48622
77756,48622
77756,49015
" /> 
<polyline style="fill-rule:evenodd;"
points="76969,49015
77363,49015
77363,48622
76969,48622
76969,49015
" /> 
<polyline style="fill-rule:evenodd;"
points="76181,49015
76575,49015
76575,48622
76181,48622
76181,49015
" /> 
<polyline style="fill-rule:evenodd;"
points="76181,42519
76575,42519
76575,42125
76181,42125
76181,42519
" /> 
<polyline style="fill-rule:evenodd;"
points="76969,42519
77363,42519
77363,42125
76969,42125
76969,42519
" /> 
<polyline style="fill-rule:evenodd;"
points="77756,42519
78150,42519
78150,42125
77756,42125
77756,42519
" /> 
<polyline style="fill-rule:evenodd;"
points="78544,42519
78937,42519
78937,42125
78544,42125
78544,42519
" /> 
<polyline style="fill-rule:evenodd;"
points="79331,42519
79725,42519
79725,42125
79331,42125
79331,42519
" /> 
<polyline style="fill-rule:evenodd;"
points="80118,42519
80512,42519
80512,42125
80118,42125
80118,42519
" /> 
<polyline style="fill-rule:evenodd;"
points="80906,42519
81300,42519
81300,42125
80906,42125
80906,42519
" /> 
<polyline style="fill-rule:evenodd;"
points="81693,42519
82087,42519
82087,42125
81693,42125
81693,42519
" /> 
<polyline style="fill-rule:evenodd;"
points="81930,38287
81930,37106
81339,37106
81339,38287
81930,38287
" /> 
<polyline style="fill-rule:evenodd;"
points="81430,40059
81430,38877
80839,38877
80839,40059
81430,40059
" /> 
<polyline style="fill-rule:evenodd;"
points="80930,38287
80930,37106
80339,37106
80339,38287
80930,38287
" /> 
<polyline style="fill-rule:evenodd;"
points="80430,40059
80430,38877
79839,38877
79839,40059
80430,40059
" /> 
<polyline style="fill-rule:evenodd;"
points="79930,38287
79930,37106
79339,37106
79339,38287
79930,38287
" /> 
<polyline style="fill-rule:evenodd;"
points="79430,40059
79430,38877
78839,38877
78839,40059
79430,40059
" /> 
</g>
<g style="fill:#840000; fill-opacity:1.0; 
stroke:#840000; stroke-width:984.252; stroke-opacity:1; 
stroke-linecap:round; stroke-linejoin:round;">
</g>
<g style="fill:#840000; fill-opacity:0.0; 
stroke:#840000; stroke-width:984.252; stroke-opacity:1; 
stroke-linecap:round; stroke-linejoin:round;">
<path d="M69882 53444
L69882 53641
" />
<path d="M67914 53444
L67914 53641
" />
</g>
<g style="fill:#000000; fill-opacity:0.0; 
stroke:#000000; stroke-width:984.252; stroke-opacity:1; 
stroke-linecap:round; stroke-linejoin:round;">
</g>
<g style="fill:#840000; fill-opacity:0.0; 
stroke:#840000; stroke-width:984.252; stroke-opacity:1; 
stroke-linecap:round; stroke-linejoin:round;">
</g>
<g style="fill:#840000; fill-opacity:0.0; 
stroke:#840000; stroke-width:0; stroke-opacity:1; 
stroke-linecap:round; stroke-linejoin:round;">
</g>
<g style="fill:#840000; fill-opacity:1.0; 
stroke:#840000; stroke-width:0; stroke-opacity:1; 
stroke-linecap:round; stroke-linejoin:round;">
<polyline style="fill-rule:evenodd;"
points="73868,34842
73376,34842
73376,35236
73868,35236
73868,34842
" /> 
<polyline style="fill-rule:evenodd;"
points="73868,35629
73376,35629
73376,36023
73868,36023
73868,35629
" /> 
<polyline style="fill-rule:evenodd;"
points="76575,34793
76575,35285
76969,35285
76969,34793
76575,34793
" /> 
<polyline style="fill-rule:evenodd;"
points="77363,34793
77363,35285
77756,35285
77756,34793
77363,34793
" /> 
<polyline style="fill-rule:evenodd;"
points="76575,35974
76575,36466
76969,36466
76969,35974
76575,35974
" /> 
<polyline style="fill-rule:evenodd;"
points="77363,35974
77363,36466
77756,36466
77756,35974
77363,35974
" /> 
<polyline style="fill-rule:evenodd;"
points="74557,43897
75050,43897
75050,43503
74557,43503
74557,43897
" /> 
<polyline style="fill-rule:evenodd;"
points="74557,43110
75050,43110
75050,42716
74557,42716
74557,43110
" /> 
<polyline style="fill-rule:evenodd;"
points="80463,50984
80955,50984
80955,50590
80463,50590
80463,50984
" /> 
<polyline style="fill-rule:evenodd;"
points="80463,50196
80955,50196
80955,49803
80463,49803
80463,50196
" /> 
<polyline style="fill-rule:evenodd;"
points="73770,43897
74262,43897
74262,43503
73770,43503
73770,43897
" /> 
<polyline style="fill-rule:evenodd;"
points="73770,43110
74262,43110
74262,42716
73770,42716
73770,43110
" /> 
<polyline style="fill-rule:evenodd;"
points="72983,43897
73475,43897
73475,43503
72983,43503
72983,43897
" /> 
<polyline style="fill-rule:evenodd;"
points="72983,43110
73475,43110
73475,42716
72983,42716
72983,43110
" /> 
<polyline style="fill-rule:evenodd;"
points="76752,38208
76437,38208
76437,38562
76752,38562
76752,38208
" /> 
<polyline style="fill-rule:evenodd;"
points="77500,38208
77185,38208
77185,38562
77500,38562
77500,38208
" /> 
<polyline style="fill-rule:evenodd;"
points="77126,38996
76811,38996
76811,39350
77126,39350
77126,38996
" /> 
<polyline style="fill-rule:evenodd;"
points="84882,39094
84410,39094
84410,39566
84882,39566
84882,39094
" /> 
<polyline style="fill-rule:evenodd;"
points="84882,39960
84410,39960
84410,40433
84882,40433
84882,39960
" /> 
<polyline style="fill-rule:evenodd;"
points="84410,38031
84882,38031
84882,37559
84410,37559
84410,38031
" /> 
<polyline style="fill-rule:evenodd;"
points="84410,37165
84882,37165
84882,36692
84410,36692
84410,37165
" /> 
<polyline style="fill-rule:evenodd;"
points="78205,52854
78205,51673
77615,51673
77615,52854
78205,52854
" /> 
<polyline style="fill-rule:evenodd;"
points="77705,54625
77705,53444
77115,53444
77115,54625
77705,54625
" /> 
<polyline style="fill-rule:evenodd;"
points="77205,52854
77205,51673
76615,51673
76615,52854
77205,52854
" /> 
<polyline style="fill-rule:evenodd;"
points="76705,54625
76705,53444
76115,53444
76115,54625
76705,54625
" /> 
<polyline style="fill-rule:evenodd;"
points="76205,52854
76205,51673
75615,51673
75615,52854
76205,52854
" /> 
<polyline style="fill-rule:evenodd;"
points="75705,54625
75705,53444
75115,53444
75115,54625
75705,54625
" /> 
<polyline style="fill-rule:evenodd;"
points="75205,52854
75205,51673
74615,51673
74615,52854
75205,52854
" /> 
<polyline style="fill-rule:evenodd;"
points="74705,54625
74705,53444
74115,53444
74115,54625
74705,54625
" /> 
<polyline style="fill-rule:evenodd;"
points="74205,52854
74205,51673
73615,51673
73615,52854
74205,52854
" /> 
<polyline style="fill-rule:evenodd;"
points="73705,54625
73705,53444
73115,53444
73115,54625
73705,54625
" /> 
<polyline style="fill-rule:evenodd;"
points="73205,52854
73205,51673
72615,51673
72615,52854
73205,52854
" /> 
<polyline style="fill-rule:evenodd;"
points="72705,54625
72705,53444
72115,53444
72115,54625
72705,54625
" /> 
<polyline style="fill-rule:evenodd;"
points="74630,38287
74630,37106
74040,37106
74040,38287
74630,38287
" /> 
<polyline style="fill-rule:evenodd;"
points="74130,40059
74130,38877
73540,38877
73540,40059
74130,40059
" /> 
<polyline style="fill-rule:evenodd;"
points="73630,38287
73630,37106
73040,37106
73040,38287
73630,38287
" /> 
<polyline style="fill-rule:evenodd;"
points="73130,40059
73130,38877
72540,38877
72540,40059
73130,40059
" /> 
<polyline style="fill-rule:evenodd;"
points="77658,37657
77658,37145
77382,37145
77382,37657
77658,37657
" /> 
<polyline style="fill-rule:evenodd;"
points="76910,37657
76910,37145
76634,37145
76634,37657
76910,37657
" /> 
<polyline style="fill-rule:evenodd;"
points="72304,42814
71792,42814
71792,43090
72304,43090
72304,42814
" /> 
<polyline style="fill-rule:evenodd;"
points="72304,43562
71792,43562
71792,43838
72304,43838
72304,43562
" /> 
<polyline style="fill-rule:evenodd;"
points="83721,39251
83209,39251
83209,39527
83721,39527
83721,39251
" /> 
<polyline style="fill-rule:evenodd;"
points="83721,40000
83209,40000
83209,40275
83721,40275
83721,40000
" /> 
<polyline style="fill-rule:evenodd;"
points="70985,43838
71496,43838
71496,43562
70985,43562
70985,43838
" /> 
<polyline style="fill-rule:evenodd;"
points="70985,43090
71496,43090
71496,42814
70985,42814
70985,43090
" /> 
<polyline style="fill-rule:evenodd;"
points="83209,37913
83721,37913
83721,37637
83209,37637
83209,37913
" /> 
<polyline style="fill-rule:evenodd;"
points="83209,37165
83721,37165
83721,36889
83209,36889
83209,37165
" /> 
<polyline style="fill-rule:evenodd;"
points="77697,41082
78209,41082
78209,40807
77697,40807
77697,41082
" /> 
<polyline style="fill-rule:evenodd;"
points="77697,40334
78209,40334
78209,40059
77697,40059
77697,40334
" /> 
<polyline style="fill-rule:evenodd;"
points="76516,41082
77028,41082
77028,40807
76516,40807
76516,41082
" /> 
<polyline style="fill-rule:evenodd;"
points="76516,40334
77028,40334
77028,40059
76516,40059
76516,40334
" /> 
<polyline style="fill-rule:evenodd;"
points="79784,49901
79272,49901
79272,50177
79784,50177
79784,49901
" /> 
<polyline style="fill-rule:evenodd;"
points="79784,50649
79272,50649
79272,50925
79784,50925
79784,50649
" /> 
<polyline style="fill-rule:evenodd;"
points="82146,49901
81634,49901
81634,50177
82146,50177
82146,49901
" /> 
<polyline style="fill-rule:evenodd;"
points="82146,50649
81634,50649
81634,50925
82146,50925
82146,50649
" /> 
<polyline style="fill-rule:evenodd;"
points="75335,41082
75847,41082
75847,40807
75335,40807
75335,41082
" /> 
<polyline style="fill-rule:evenodd;"
points="75335,40334
75847,40334
75847,40059
75335,40059
75335,40334
" /> 
<polyline style="fill-rule:evenodd;"
points="74516,35659
74516,35915
74933,35915
74933,35659
74516,35659
" /> 
<polyline style="fill-rule:evenodd;"
points="74516,35285
74516,35541
74933,35541
74933,35285
74516,35285
" /> 
<polyline style="fill-rule:evenodd;"
points="74516,34911
74516,35167
74933,35167
74933,34911
74516,34911
" /> 
<polyline style="fill-rule:evenodd;"
points="75382,34911
75382,35167
75800,35167
75800,34911
75382,34911
" /> 
<polyline style="fill-rule:evenodd;"
points="75382,35659
75382,35915
75800,35915
75800,35659
75382,35659
" /> 
<polyline style="fill-rule:evenodd;"
points="74467,48976
74703,48976
74703,48385
74467,48385
74467,48976
" /> 
<polyline style="fill-rule:evenodd;"
points="73967,48976
74203,48976
74203,48385
73967,48385
73967,48976
" /> 
<polyline style="fill-rule:evenodd;"
points="73467,48976
73703,48976
73703,48385
73467,48385
73467,48976
" /> 
<polyline style="fill-rule:evenodd;"
points="72967,48976
73203,48976
73203,48385
72967,48385
72967,48976
" /> 
<polyline style="fill-rule:evenodd;"
points="72467,48976
72703,48976
72703,48385
72467,48385
72467,48976
" /> 
<polyline style="fill-rule:evenodd;"
points="71967,48976
72203,48976
72203,48385
71967,48385
71967,48976
" /> 
<polyline style="fill-rule:evenodd;"
points="71467,48976
71703,48976
71703,48385
71467,48385
71467,48976
" /> 
<polyline style="fill-rule:evenodd;"
points="70967,48976
71203,48976
71203,48385
70967,48385
70967,48976
" /> 
<polyline style="fill-rule:evenodd;"
points="70967,45314
71203,45314
71203,44724
70967,44724
70967,45314
" /> 
<polyline style="fill-rule:evenodd;"
points="71467,45314
71703,45314
71703,44724
71467,44724
71467,45314
" /> 
<polyline style="fill-rule:evenodd;"
points="71967,45314
72203,45314
72203,44724
71967,44724
71967,45314
" /> 
<polyline style="fill-rule:evenodd;"
points="72467,45314
72703,45314
72703,44724
72467,44724
72467,45314
" /> 
<polyline style="fill-rule:evenodd;"
points="72967,45314
73203,45314
73203,44724
72967,44724
72967,45314
" /> 
<polyline style="fill-rule:evenodd;"
points="73467,45314
73703,45314
73703,44724
73467,44724
73467,45314
" /> 
<polyline style="fill-rule:evenodd;"
points="73967,45314
74203,45314
74203,44724
73967,44724
73967,45314
" /> 
<polyline style="fill-rule:evenodd;"
points="74467,45314
74703,45314
74703,44724
74467,44724
74467,45314
" /> 
<polyline style="fill-rule:evenodd;"
points="81693,49015
82087,49015
82087,48622
81693,48622
81693,49015
" /> 
<polyline style="fill-rule:evenodd;"
points="80906,49015
81300,49015
81300,48622
80906,48622
80906,49015
" /> 
<polyline style="fill-rule:evenodd;"
points="80118,49015
80512,49015
80512,48622
80118,48622
80118,49015
" /> 
<polyline style="fill-rule:evenodd;"
points="79331,49015
79725,49015
79725,48622
79331,48622
79331,49015
" /> 
<polyline style="fill-rule:evenodd;"
points="78544,49015
78937,49015
78937,48622
78544,48622
78544,49015
" /> 
<polyline style="fill-rule:evenodd;"
points="77756,49015
78150,49015
78150,48622
77756,48622
77756,49015
" /> 
<polyline style="fill-rule:evenodd;"
points="76969,49015
77363,49015
77363,48622
76969,48622
76969,49015
" /> 
<polyline style="fill-rule:evenodd;"
points="76181,49015
76575,49015
76575,48622
76181,48622
76181,49015
" /> 
<polyline style="fill-rule:evenodd;"
points="76181,42519
76575,42519
76575,42125
76181,42125
76181,42519
" /> 
<polyline style="fill-rule:evenodd;"
points="76969,42519
77363,42519
77363,42125
76969,42125
76969,42519
" /> 
<polyline style="fill-rule:evenodd;"
points="77756,42519
78150,42519
78150,42125
77756,42125
77756,42519
" /> 
<polyline style="fill-rule:evenodd;"
points="78544,42519
78937,42519
78937,42125
78544,42125
78544,42519
" /> 
<polyline style="fill-rule:evenodd;"
points="79331,42519
79725,42519
79725,42125
79331,42125
79331,42519
" /> 
<polyline style="fill-rule:evenodd;"
points="80118,42519
80512,42519
80512,42125
80118,42125
80118,42519
" /> 
<polyline style="fill-rule:evenodd;"
points="80906,42519
81300,42519
81300,42125
80906,42125
80906,42519
" /> 
<polyline style="fill-rule:evenodd;"
points="81693,42519
82087,42519
82087,42125
81693,42125
81693,42519
" /> 
<polyline style="fill-rule:evenodd;"
points="81930,38287
81930,37106
81339,37106
81339,38287
81930,38287
" /> 
<polyline style="fill-rule:evenodd;"
points="81430,40059
81430,38877
80839,38877
80839,40059
81430,40059
" /> 
<polyline style="fill-rule:evenodd;"
points="80930,38287
80930,37106
80339,37106
80339,38287
80930,38287
" /> 
<polyline style="fill-rule:evenodd;"
points="80430,40059
80430,38877
79839,38877
79839,40059
80430,40059
" /> 
<polyline style="fill-rule:evenodd;"
points="79930,38287
79930,37106
79339,37106
79339,38287
79930,38287
" /> 
<polyline style="fill-rule:evenodd;"
points="79430,40059
79430,38877
78839,38877
78839,40059
79430,40059
" /> 
</g>
<g style="fill:#000000; fill-opacity:1.0; 
stroke:#000000; stroke-width:0; stroke-opacity:1; 
stroke-linecap:round; stroke-linejoin:round;">
</g>
<g style="fill:#C2C200; fill-opacity:1.0; 
stroke:#C2C200; stroke-width:0; stroke-opacity:1; 
stroke-linecap:round; stroke-linejoin:round;">
</g>
<g style="fill:#C2C200; fill-opacity:1.0; 
stroke:#C2C200; stroke-width:39.3701; stroke-opacity:1; 
stroke-linecap:round; stroke-linejoin:round;">
</g>
<g style="fill:#C2C200; fill-opacity:0.0; 
stroke:#C2C200; stroke-width:39.3701; stroke-opacity:1; 
stroke-linecap:round; stroke-linejoin:round;">
<path d="M85433 33464
L61811 33464
" />
<path d="M85433 55118
L85433 33464
" />
<path d="M61811 55118
L85433 55118
" />
<path d="M61811 33464
L61811 55118
" />
</g> 
</svg>
